<svg width="124" height="52" viewBox="0 0 124 52" fill="none" xmlns="http://www.w3.org/2000/svg">
<g clip-path="url(#clip0_173_2179)">
<path d="M10.375 21.375H7.6C7.475 21.375 7.35 21.325 7.25 21.225L6.25 20.225C6.1 20.075 5.875 20.075 5.725 20.225L4.725 21.225C4.625 21.325 4.5 21.375 4.375 21.375H1.625C0.8 21.375 0.125 22.05 0.125 22.875V30.375C0.125 31.2 0.8 31.875 1.625 31.875H10.375C11.2 31.875 11.875 31.2 11.875 30.375V22.875C11.875 22.05 11.2 21.375 10.375 21.375ZM3.025 31.125C2.875 31.125 2.75 30.975 2.775 30.825C2.95 30.025 3.65 29.425 4.475 29.425H7.475C8.325 29.425 9.025 30.025 9.175 30.825C9.2 30.975 9.075 31.125 8.925 31.125H3.025ZM11.125 30.375C11.125 30.8 10.8 31.125 10.375 31.125H10.225C10.1 31.125 10 31.025 9.975 30.9C9.825 29.65 8.775 28.675 7.5 28.675H4.5C3.225 28.675 2.15 29.65 2.025 30.9C2 31.025 1.9 31.125 1.775 31.125H1.625C1.2 31.125 0.875 30.8 0.875 30.375V22.875C0.875 22.45 1.2 22.125 1.625 22.125H4.4C4.725 22.125 5.05 22 5.275 21.75L6 21.025L6.725 21.75C6.95 21.975 7.275 22.125 7.6 22.125H10.375C10.8 22.125 11.125 22.45 11.125 22.875V30.375ZM6 23.125C4.675 23.125 3.6 24.2 3.6 25.525C3.6 26.85 4.675 27.925 6 27.925C7.325 27.925 8.4 26.85 8.4 25.525C8.4 24.2 7.325 23.125 6 23.125ZM6 27.15C5.1 27.15 4.35 26.425 4.35 25.5C4.35 24.6 5.075 23.85 6 23.85C6.925 23.85 7.65 24.575 7.65 25.5C7.65 26.4 6.9 27.15 6 27.15Z" fill="#8E8E8E"/>
</g>
<path d="M24.4277 23.7812H22.0137V31H20.6191V23.7812H18.2109V22.5977H24.4277V23.7812ZM31.6816 31H30.1523L29.3965 28.8613H26.0918L25.3652 31H23.8418L26.9883 22.5977H28.5586L31.6816 31ZM29.0273 27.7246L27.8613 24.373C27.8262 24.2637 27.7891 24.0879 27.75 23.8457H27.7266C27.6914 24.0684 27.6523 24.2441 27.6094 24.373L26.4551 27.7246H29.0273ZM39.2578 30.4258C38.3828 30.9023 37.4082 31.1406 36.334 31.1406C35.0918 31.1406 34.0859 30.7539 33.3164 29.9805C32.5469 29.207 32.1621 28.1836 32.1621 26.9102C32.1621 25.6094 32.582 24.543 33.4219 23.7109C34.2656 22.875 35.3359 22.457 36.6328 22.457C37.5664 22.457 38.3516 22.5938 38.9883 22.8672V24.3027C38.3438 23.873 37.5762 23.6582 36.6855 23.6582C35.791 23.6582 35.0566 23.9531 34.4824 24.543C33.9121 25.1328 33.627 25.8965 33.627 26.834C33.627 27.7988 33.873 28.5586 34.3652 29.1133C34.8574 29.6641 35.5254 29.9395 36.3691 29.9395C36.9473 29.9395 37.4473 29.8281 37.8691 29.6055V27.6074H36.0996V26.4355H39.2578V30.4258ZM47.625 30.4258C46.75 30.9023 45.7754 31.1406 44.7012 31.1406C43.459 31.1406 42.4531 30.7539 41.6836 29.9805C40.9141 29.207 40.5293 28.1836 40.5293 26.9102C40.5293 25.6094 40.9492 24.543 41.7891 23.7109C42.6328 22.875 43.7031 22.457 45 22.457C45.9336 22.457 46.7188 22.5938 47.3555 22.8672V24.3027C46.7109 23.873 45.9434 23.6582 45.0527 23.6582C44.1582 23.6582 43.4238 23.9531 42.8496 24.543C42.2793 25.1328 41.9941 25.8965 41.9941 26.834C41.9941 27.7988 42.2402 28.5586 42.7324 29.1133C43.2246 29.6641 43.8926 29.9395 44.7363 29.9395C45.3145 29.9395 45.8145 29.8281 46.2363 29.6055V27.6074H44.4668V26.4355H47.625V30.4258ZM54.1523 31H49.4355V22.5977H53.9648V23.7812H50.8301V26.1602H53.7188V27.3379H50.8301V29.8223H54.1523V31ZM55.6465 31V22.5977H58.0723C61.1699 22.5977 62.7188 23.9629 62.7188 26.6934C62.7188 27.9902 62.2891 29.0332 61.4297 29.8223C60.5703 30.6074 59.418 31 57.9727 31H55.6465ZM57.0352 23.7812V29.8223H58.1484C59.1289 29.8223 59.8906 29.5527 60.4336 29.0137C60.9805 28.4746 61.2539 27.7129 61.2539 26.7285C61.2539 24.7637 60.2363 23.7812 58.2012 23.7812H57.0352Z" fill="#8E8E8E"/>
<defs>
<clipPath id="clip0_173_2179">
<rect width="12" height="12" fill="white" transform="translate(0 20)"/>
</clipPath>
</defs>
</svg>
