<svg width="114" height="53" viewBox="0 0 114 53" fill="none" xmlns="http://www.w3.org/2000/svg">
<rect width="47" height="1" fill="#262626"/>
<g clip-path="url(#clip0_173_2138)">
<path fill-rule="evenodd" clip-rule="evenodd" d="M11.25 21.375H0.75C0.55 21.375 0.375 21.55 0.375 21.75V32.25C0.375 32.45 0.55 32.625 0.75 32.625H11.25C11.45 32.625 11.625 32.45 11.625 32.25V21.75C11.625 21.55 11.45 21.375 11.25 21.375ZM1.125 22.125H3.875V24.875H1.125V22.125ZM1.125 25.625H3.875V28.375H1.125V25.625ZM3.875 31.875H1.125V29.125H3.875V31.875ZM7.375 31.875H4.625V29.125H7.375V31.875ZM7.375 28.375H4.625V25.625H7.375V28.375ZM7.375 24.875H4.625V22.125H7.375V24.875ZM10.875 31.875H8.125V29.125H10.875V31.875ZM10.875 28.375H8.125V25.625H10.875V28.375ZM10.875 24.875H8.125V22.125H10.875V24.875Z" fill="#262626"/>
</g>
<path d="M20.4258 28.9531V32H19.0371V23.5977H21.5859C22.5508 23.5977 23.2988 23.8223 23.8301 24.2715C24.3613 24.7207 24.627 25.3535 24.627 26.1699C24.627 26.9863 24.3496 27.6543 23.7949 28.1738C23.2402 28.6934 22.4902 28.9531 21.5449 28.9531H20.4258ZM20.4258 24.7461V27.8164H21.3281C21.9258 27.8164 22.3809 27.6777 22.6934 27.4004C23.0059 27.123 23.1621 26.7324 23.1621 26.2285C23.1621 25.2402 22.5879 24.7461 21.4395 24.7461H20.4258ZM29.5195 32.1406C28.3086 32.1406 27.3379 31.748 26.6074 30.9629C25.8809 30.1777 25.5176 29.1562 25.5176 27.8984C25.5176 26.5469 25.8887 25.4688 26.6309 24.6641C27.373 23.8594 28.3809 23.457 29.6543 23.457C30.834 23.457 31.7832 23.8477 32.502 24.6289C33.2246 25.4102 33.5859 26.4316 33.5859 27.6934C33.5859 29.0645 33.2168 30.1484 32.4785 30.9453C31.7402 31.7422 30.7539 32.1406 29.5195 32.1406ZM29.584 24.6816C28.8145 24.6816 28.1875 24.9688 27.7031 25.543C27.2227 26.1172 26.9824 26.873 26.9824 27.8105C26.9824 28.7441 27.2168 29.4961 27.6855 30.0664C28.1543 30.6367 28.7676 30.9219 29.5254 30.9219C30.3301 30.9219 30.9648 30.6504 31.4297 30.1074C31.8945 29.5645 32.127 28.8047 32.127 27.8281C32.127 26.8242 31.9004 26.0488 31.4473 25.502C30.998 24.9551 30.377 24.6816 29.584 24.6816ZM34.7402 31.666V30.2305C34.8691 30.3477 35.0215 30.4531 35.1973 30.5469C35.377 30.6406 35.5664 30.7207 35.7656 30.7871C35.9648 30.8496 36.1641 30.8984 36.3633 30.9336C36.5625 30.9688 36.7461 30.9863 36.9141 30.9863C37.5 30.9863 37.9355 30.8887 38.2207 30.6934C38.5098 30.498 38.6543 30.2148 38.6543 29.8438C38.6543 29.6445 38.6055 29.4727 38.5078 29.3281C38.4141 29.1797 38.2812 29.0449 38.1094 28.9238C37.9375 28.8027 37.7344 28.6875 37.5 28.5781C37.2695 28.4648 37.0215 28.3477 36.7559 28.2266C36.4707 28.0742 36.2051 27.9199 35.959 27.7637C35.7129 27.6074 35.498 27.4355 35.3145 27.248C35.1348 27.0566 34.9922 26.8418 34.8867 26.6035C34.7852 26.3652 34.7344 26.0859 34.7344 25.7656C34.7344 25.3711 34.8223 25.0293 34.998 24.7402C35.1777 24.4473 35.4121 24.207 35.7012 24.0195C35.9941 23.8281 36.3262 23.6875 36.6973 23.5977C37.0684 23.5039 37.4473 23.457 37.834 23.457C38.7129 23.457 39.3535 23.5566 39.7559 23.7559V25.1328C39.2793 24.7891 38.666 24.6172 37.916 24.6172C37.709 24.6172 37.502 24.6367 37.2949 24.6758C37.0918 24.7148 36.9082 24.7793 36.7441 24.8691C36.584 24.959 36.4531 25.0742 36.3516 25.2148C36.25 25.3555 36.1992 25.5254 36.1992 25.7246C36.1992 25.9121 36.2383 26.0742 36.3164 26.2109C36.3945 26.3477 36.5078 26.4727 36.6562 26.5859C36.8086 26.6992 36.9922 26.8105 37.207 26.9199C37.4258 27.0254 37.6777 27.1406 37.9629 27.2656C38.2559 27.418 38.5312 27.5781 38.7891 27.7461C39.0508 27.9141 39.2793 28.0996 39.4746 28.3027C39.6738 28.5059 39.8301 28.7324 39.9434 28.9824C40.0605 29.2285 40.1191 29.5098 40.1191 29.8262C40.1191 30.252 40.0332 30.6113 39.8613 30.9043C39.6895 31.1973 39.457 31.4355 39.1641 31.6191C38.875 31.8027 38.541 31.9355 38.1621 32.0176C37.7832 32.0996 37.3828 32.1406 36.9609 32.1406C36.8203 32.1406 36.6465 32.1289 36.4395 32.1055C36.2363 32.0859 36.0273 32.0547 35.8125 32.0117C35.5977 31.9727 35.3945 31.9238 35.2031 31.8652C35.0117 31.8066 34.8574 31.7402 34.7402 31.666ZM47.0566 24.7812H44.6426V32H43.248V24.7812H40.8398V23.5977H47.0566V24.7812ZM47.9004 31.666V30.2305C48.0293 30.3477 48.1816 30.4531 48.3574 30.5469C48.5371 30.6406 48.7266 30.7207 48.9258 30.7871C49.125 30.8496 49.3242 30.8984 49.5234 30.9336C49.7227 30.9688 49.9062 30.9863 50.0742 30.9863C50.6602 30.9863 51.0957 30.8887 51.3809 30.6934C51.6699 30.498 51.8145 30.2148 51.8145 29.8438C51.8145 29.6445 51.7656 29.4727 51.668 29.3281C51.5742 29.1797 51.4414 29.0449 51.2695 28.9238C51.0977 28.8027 50.8945 28.6875 50.6602 28.5781C50.4297 28.4648 50.1816 28.3477 49.916 28.2266C49.6309 28.0742 49.3652 27.9199 49.1191 27.7637C48.873 27.6074 48.6582 27.4355 48.4746 27.248C48.2949 27.0566 48.1523 26.8418 48.0469 26.6035C47.9453 26.3652 47.8945 26.0859 47.8945 25.7656C47.8945 25.3711 47.9824 25.0293 48.1582 24.7402C48.3379 24.4473 48.5723 24.207 48.8613 24.0195C49.1543 23.8281 49.4863 23.6875 49.8574 23.5977C50.2285 23.5039 50.6074 23.457 50.9941 23.457C51.873 23.457 52.5137 23.5566 52.916 23.7559V25.1328C52.4395 24.7891 51.8262 24.6172 51.0762 24.6172C50.8691 24.6172 50.6621 24.6367 50.4551 24.6758C50.252 24.7148 50.0684 24.7793 49.9043 24.8691C49.7441 24.959 49.6133 25.0742 49.5117 25.2148C49.4102 25.3555 49.3594 25.5254 49.3594 25.7246C49.3594 25.9121 49.3984 26.0742 49.4766 26.2109C49.5547 26.3477 49.668 26.4727 49.8164 26.5859C49.9688 26.6992 50.1523 26.8105 50.3672 26.9199C50.5859 27.0254 50.8379 27.1406 51.123 27.2656C51.416 27.418 51.6914 27.5781 51.9492 27.7461C52.2109 27.9141 52.4395 28.0996 52.6348 28.3027C52.834 28.5059 52.9902 28.7324 53.1035 28.9824C53.2207 29.2285 53.2793 29.5098 53.2793 29.8262C53.2793 30.252 53.1934 30.6113 53.0215 30.9043C52.8496 31.1973 52.6172 31.4355 52.3242 31.6191C52.0352 31.8027 51.7012 31.9355 51.3223 32.0176C50.9434 32.0996 50.543 32.1406 50.1211 32.1406C49.9805 32.1406 49.8066 32.1289 49.5996 32.1055C49.3965 32.0859 49.1875 32.0547 48.9727 32.0117C48.7578 31.9727 48.5547 31.9238 48.3633 31.8652C48.1719 31.8066 48.0176 31.7402 47.9004 31.666Z" fill="#262626"/>
<defs>
<clipPath id="clip0_173_2138">
<rect width="12" height="12" fill="white" transform="translate(0 21)"/>
</clipPath>
</defs>
</svg>
