<svg width="120" height="52" viewBox="0 0 120 52" fill="none" xmlns="http://www.w3.org/2000/svg">
<g clip-path="url(#clip0_173_2150)">
<path d="M6 32H5.925L0.3 30.75C0.125 30.7 0 30.55 0 30.375V20.375C0 20.25 0.05 20.15 0.15 20.075C0.25 20 0.35 19.975 0.45 20L6.075 21.25C6.25 21.3 6.375 21.45 6.375 21.625V31.625C6.375 31.75 6.325 31.85 6.225 31.925C6.175 31.975 6.075 32 6 32ZM0.75 30.075L5.625 31.15V21.925L0.75 20.85V30.075Z" fill="#8E8E8E"/>
<path d="M6 32C5.925 32 5.825 31.975 5.775 31.925C5.675 31.85 5.625 31.75 5.625 31.625V21.625C5.625 21.45 5.75 21.3 5.925 21.25L11.55 20C11.65 19.975 11.775 20 11.875 20.075C11.95 20.15 12 20.25 12 20.375V30.375C12 30.55 11.875 30.7 11.7 30.75L6.075 32H6ZM6.375 21.925V31.15L11.25 30.075V20.85L6.375 21.925Z" fill="#8E8E8E"/>
<path d="M7.625 29.7C7.45 29.7 7.3 29.575 7.25 29.4C7.2 29.2 7.325 29 7.525 28.95L9.9 28.425C10.1 28.375 10.3 28.5 10.35 28.7C10.4 28.9 10.275 29.1 10.075 29.15L7.7 29.675C7.675 29.7 7.65 29.7 7.625 29.7ZM4.375 29.7H4.3L1.925 29.175C1.725 29.125 1.6 28.925 1.65 28.725C1.7 28.525 1.9 28.4 2.1 28.45L4.475 28.975C4.675 29.025 4.8 29.225 4.75 29.425C4.7 29.575 4.55 29.7 4.375 29.7ZM4.375 26.2H4.3L1.925 25.675C1.75 25.625 1.625 25.475 1.625 25.3V22.675C1.625 22.55 1.675 22.45 1.775 22.375C1.875 22.3 1.975 22.275 2.1 22.3L4.475 22.825C4.65 22.875 4.775 23.025 4.775 23.2V25.825C4.775 25.95 4.725 26.05 4.625 26.125C4.55 26.175 4.45 26.2 4.375 26.2ZM2.375 25L4 25.35V23.5L2.375 23.15V25ZM7.625 26.2C7.55 26.2 7.45 26.175 7.4 26.125C7.3 26.05 7.25 25.95 7.25 25.825V23.2C7.25 23.025 7.375 22.875 7.55 22.825L9.925 22.3C10.025 22.275 10.15 22.3 10.25 22.375C10.35 22.45 10.4 22.55 10.4 22.675V25.3C10.4 25.475 10.275 25.625 10.1 25.675L7.725 26.2H7.625ZM8 23.5V25.35L9.625 25V23.15L8 23.5ZM7.625 28.2C7.45 28.2 7.3 28.075 7.25 27.9C7.2 27.7 7.325 27.5 7.525 27.45L9.9 26.925C10.1 26.875 10.3 27 10.35 27.2C10.4 27.4 10.275 27.6 10.075 27.65L7.7 28.175C7.675 28.2 7.65 28.2 7.625 28.2Z" fill="#8E8E8E"/>
</g>
<path d="M25.5938 30.4258C24.7188 30.9023 23.7441 31.1406 22.6699 31.1406C21.4277 31.1406 20.4219 30.7539 19.6523 29.9805C18.8828 29.207 18.498 28.1836 18.498 26.9102C18.498 25.6094 18.918 24.543 19.7578 23.7109C20.6016 22.875 21.6719 22.457 22.9688 22.457C23.9023 22.457 24.6875 22.5938 25.3242 22.8672V24.3027C24.6797 23.873 23.9121 23.6582 23.0215 23.6582C22.127 23.6582 21.3926 23.9531 20.8184 24.543C20.248 25.1328 19.9629 25.8965 19.9629 26.834C19.9629 27.7988 20.209 28.5586 20.7012 29.1133C21.1934 29.6641 21.8613 29.9395 22.7051 29.9395C23.2832 29.9395 23.7832 29.8281 24.2051 29.6055V27.6074H22.4355V26.4355H25.5938V30.4258ZM33.8672 27.6016C33.8672 29.9609 32.75 31.1406 30.5156 31.1406C28.375 31.1406 27.3047 30.0059 27.3047 27.7363V22.5977H28.6992V27.4492C28.6992 29.0977 29.3398 29.9219 30.6211 29.9219C31.8555 29.9219 32.4727 29.127 32.4727 27.5371V22.5977H33.8672V27.6016ZM37.2715 31H35.8359V22.5977H37.2715V31ZM39.3457 31V22.5977H41.7715C44.8691 22.5977 46.418 23.9629 46.418 26.6934C46.418 27.9902 45.9883 29.0332 45.1289 29.8223C44.2695 30.6074 43.1172 31 41.6719 31H39.3457ZM40.7344 23.7812V29.8223H41.8477C42.8281 29.8223 43.5898 29.5527 44.1328 29.0137C44.6797 28.4746 44.9531 27.7129 44.9531 26.7285C44.9531 24.7637 43.9355 23.7812 41.9004 23.7812H40.7344ZM52.6758 31H47.959V22.5977H52.4883V23.7812H49.3535V26.1602H52.2422V27.3379H49.3535V29.8223H52.6758V31ZM53.7832 30.666V29.2305C53.9121 29.3477 54.0645 29.4531 54.2402 29.5469C54.4199 29.6406 54.6094 29.7207 54.8086 29.7871C55.0078 29.8496 55.207 29.8984 55.4062 29.9336C55.6055 29.9688 55.7891 29.9863 55.957 29.9863C56.543 29.9863 56.9785 29.8887 57.2637 29.6934C57.5527 29.498 57.6973 29.2148 57.6973 28.8438C57.6973 28.6445 57.6484 28.4727 57.5508 28.3281C57.457 28.1797 57.3242 28.0449 57.1523 27.9238C56.9805 27.8027 56.7773 27.6875 56.543 27.5781C56.3125 27.4648 56.0645 27.3477 55.7988 27.2266C55.5137 27.0742 55.248 26.9199 55.002 26.7637C54.7559 26.6074 54.541 26.4355 54.3574 26.248C54.1777 26.0566 54.0352 25.8418 53.9297 25.6035C53.8281 25.3652 53.7773 25.0859 53.7773 24.7656C53.7773 24.3711 53.8652 24.0293 54.041 23.7402C54.2207 23.4473 54.4551 23.207 54.7441 23.0195C55.0371 22.8281 55.3691 22.6875 55.7402 22.5977C56.1113 22.5039 56.4902 22.457 56.877 22.457C57.7559 22.457 58.3965 22.5566 58.7988 22.7559V24.1328C58.3223 23.7891 57.709 23.6172 56.959 23.6172C56.752 23.6172 56.5449 23.6367 56.3379 23.6758C56.1348 23.7148 55.9512 23.7793 55.7871 23.8691C55.627 23.959 55.4961 24.0742 55.3945 24.2148C55.293 24.3555 55.2422 24.5254 55.2422 24.7246C55.2422 24.9121 55.2812 25.0742 55.3594 25.2109C55.4375 25.3477 55.5508 25.4727 55.6992 25.5859C55.8516 25.6992 56.0352 25.8105 56.25 25.9199C56.4688 26.0254 56.7207 26.1406 57.0059 26.2656C57.2988 26.418 57.5742 26.5781 57.832 26.7461C58.0938 26.9141 58.3223 27.0996 58.5176 27.3027C58.7168 27.5059 58.873 27.7324 58.9863 27.9824C59.1035 28.2285 59.1621 28.5098 59.1621 28.8262C59.1621 29.252 59.0762 29.6113 58.9043 29.9043C58.7324 30.1973 58.5 30.4355 58.207 30.6191C57.918 30.8027 57.584 30.9355 57.2051 31.0176C56.8262 31.0996 56.4258 31.1406 56.0039 31.1406C55.8633 31.1406 55.6895 31.1289 55.4824 31.1055C55.2793 31.0859 55.0703 31.0547 54.8555 31.0117C54.6406 30.9727 54.4375 30.9238 54.2461 30.8652C54.0547 30.8066 53.9004 30.7402 53.7832 30.666Z" fill="#8E8E8E"/>
<defs>
<clipPath id="clip0_173_2150">
<rect width="12" height="12" fill="white" transform="translate(0 20)"/>
</clipPath>
</defs>
</svg>
