<svg width="90" height="30" viewBox="0 0 90 30" fill="none" xmlns="http://www.w3.org/2000/svg">
<rect width="90" height="30" rx="4" fill="#0095F6"/>
<path d="M30.501 12.5781H26.8369V15.5244H30.2139V16.8984H26.8369V21H25.21V11.1973H30.501V12.5781ZM35.1768 21.1641C34.0967 21.1641 33.2331 20.8382 32.5859 20.1865C31.9434 19.5303 31.6221 18.6621 31.6221 17.582C31.6221 16.4062 31.957 15.488 32.627 14.8271C33.3014 14.1663 34.2083 13.8359 35.3477 13.8359C36.4414 13.8359 37.2936 14.1572 37.9043 14.7998C38.515 15.4424 38.8203 16.3333 38.8203 17.4727C38.8203 18.5892 38.4899 19.4847 37.8291 20.1592C37.1729 20.8291 36.2887 21.1641 35.1768 21.1641ZM35.252 15.1006C34.6322 15.1006 34.1423 15.3171 33.7822 15.75C33.4222 16.1829 33.2422 16.7799 33.2422 17.541C33.2422 18.2747 33.4245 18.8535 33.7891 19.2773C34.1536 19.6966 34.6413 19.9062 35.252 19.9062C35.8763 19.9062 36.3548 19.6989 36.6875 19.2842C37.0247 18.8695 37.1934 18.2793 37.1934 17.5137C37.1934 16.7435 37.0247 16.1488 36.6875 15.7295C36.3548 15.3102 35.8763 15.1006 35.252 15.1006ZM42.0332 21H40.4404V10.6367H42.0332V21ZM45.6973 21H44.1045V10.6367H45.6973V21ZM50.8721 21.1641C49.792 21.1641 48.9284 20.8382 48.2812 20.1865C47.6387 19.5303 47.3174 18.6621 47.3174 17.582C47.3174 16.4062 47.6523 15.488 48.3223 14.8271C48.9967 14.1663 49.9036 13.8359 51.043 13.8359C52.1367 13.8359 52.9889 14.1572 53.5996 14.7998C54.2103 15.4424 54.5156 16.3333 54.5156 17.4727C54.5156 18.5892 54.1852 19.4847 53.5244 20.1592C52.8682 20.8291 51.984 21.1641 50.8721 21.1641ZM50.9473 15.1006C50.3275 15.1006 49.8376 15.3171 49.4775 15.75C49.1175 16.1829 48.9375 16.7799 48.9375 17.541C48.9375 18.2747 49.1198 18.8535 49.4844 19.2773C49.849 19.6966 50.3366 19.9062 50.9473 19.9062C51.5716 19.9062 52.0501 19.6989 52.3828 19.2842C52.7201 18.8695 52.8887 18.2793 52.8887 17.5137C52.8887 16.7435 52.7201 16.1488 52.3828 15.7295C52.0501 15.3102 51.5716 15.1006 50.9473 15.1006ZM65.5488 14L63.4844 21H61.8232L60.5518 16.2559C60.5016 16.0736 60.4697 15.8685 60.4561 15.6406H60.4287C60.4196 15.7956 60.3786 15.9961 60.3057 16.2422L58.9248 21H57.2979L55.2402 14H56.8809L58.1523 19.0449C58.1934 19.1953 58.2207 19.3958 58.2344 19.6465H58.2822C58.2959 19.4551 58.3324 19.25 58.3916 19.0312L59.8066 14H61.2969L62.5547 19.0654C62.5957 19.2249 62.6253 19.4255 62.6436 19.667H62.6914C62.7005 19.4984 62.7347 19.2979 62.7939 19.0654L64.0381 14H65.5488Z" fill="white"/>
</svg>
