<svg width="120" height="52" viewBox="0 0 120 52" fill="none" xmlns="http://www.w3.org/2000/svg">
<g clip-path="url(#clip0_173_2168)">
<path d="M6 20C2.7 20 0 22.7 0 26C0 29.3 2.7 32 6 32C9.3 32 12 29.3 12 26C12 22.7 9.3 20 6 20ZM6 31.25C3.1 31.25 0.75 28.9 0.75 26C0.75 23.1 3.1 20.75 6 20.75C8.9 20.75 11.25 23.1 11.25 26C11.25 28.9 8.9 31.25 6 31.25ZM8.5 25.35L5.1 23.4C4.85 23.25 4.6 23.25 4.35 23.4C4.15 23.55 4 23.75 4 24.05V27.95C4 28.2 4.15 28.45 4.4 28.6C4.5 28.65 4.65 28.7 4.8 28.7C4.95 28.7 5.05 28.65 5.2 28.6L8.6 26.65C8.85 26.5 9 26.25 9 26C9 25.75 8.75 25.5 8.5 25.35ZM4.75 27.95V24.05L8.15 26L4.75 27.95Z" fill="#8E8E8E"/>
</g>
<path d="M25.623 22.5977L22.6055 31H21.0469L18.082 22.5977H19.6055L21.6797 28.9727C21.7461 29.1758 21.7969 29.4121 21.832 29.6816H21.8555C21.8828 29.459 21.9395 29.2188 22.0254 28.9609L24.1465 22.5977H25.623ZM28.166 31H26.7305V22.5977H28.166V31ZM30.2402 31V22.5977H32.666C35.7637 22.5977 37.3125 23.9629 37.3125 26.6934C37.3125 27.9902 36.8828 29.0332 36.0234 29.8223C35.1641 30.6074 34.0117 31 32.5664 31H30.2402ZM31.6289 23.7812V29.8223H32.7422C33.7227 29.8223 34.4844 29.5527 35.0273 29.0137C35.5742 28.4746 35.8477 27.7129 35.8477 26.7285C35.8477 24.7637 34.8301 23.7812 32.7949 23.7812H31.6289ZM43.5703 31H38.8535V22.5977H43.3828V23.7812H40.248V26.1602H43.1367V27.3379H40.248V29.8223H43.5703V31ZM48.5273 31.1406C47.3164 31.1406 46.3457 30.748 45.6152 29.9629C44.8887 29.1777 44.5254 28.1562 44.5254 26.8984C44.5254 25.5469 44.8965 24.4688 45.6387 23.6641C46.3809 22.8594 47.3887 22.457 48.6621 22.457C49.8418 22.457 50.791 22.8477 51.5098 23.6289C52.2324 24.4102 52.5938 25.4316 52.5938 26.6934C52.5938 28.0645 52.2246 29.1484 51.4863 29.9453C50.748 30.7422 49.7617 31.1406 48.5273 31.1406ZM48.5918 23.6816C47.8223 23.6816 47.1953 23.9688 46.7109 24.543C46.2305 25.1172 45.9902 25.873 45.9902 26.8105C45.9902 27.7441 46.2246 28.4961 46.6934 29.0664C47.1621 29.6367 47.7754 29.9219 48.5332 29.9219C49.3379 29.9219 49.9727 29.6504 50.4375 29.1074C50.9023 28.5645 51.1348 27.8047 51.1348 26.8281C51.1348 25.8242 50.9082 25.0488 50.4551 24.502C50.0059 23.9551 49.3848 23.6816 48.5918 23.6816ZM53.748 30.666V29.2305C53.877 29.3477 54.0293 29.4531 54.2051 29.5469C54.3848 29.6406 54.5742 29.7207 54.7734 29.7871C54.9727 29.8496 55.1719 29.8984 55.3711 29.9336C55.5703 29.9688 55.7539 29.9863 55.9219 29.9863C56.5078 29.9863 56.9434 29.8887 57.2285 29.6934C57.5176 29.498 57.6621 29.2148 57.6621 28.8438C57.6621 28.6445 57.6133 28.4727 57.5156 28.3281C57.4219 28.1797 57.2891 28.0449 57.1172 27.9238C56.9453 27.8027 56.7422 27.6875 56.5078 27.5781C56.2773 27.4648 56.0293 27.3477 55.7637 27.2266C55.4785 27.0742 55.2129 26.9199 54.9668 26.7637C54.7207 26.6074 54.5059 26.4355 54.3223 26.248C54.1426 26.0566 54 25.8418 53.8945 25.6035C53.793 25.3652 53.7422 25.0859 53.7422 24.7656C53.7422 24.3711 53.8301 24.0293 54.0059 23.7402C54.1855 23.4473 54.4199 23.207 54.709 23.0195C55.002 22.8281 55.334 22.6875 55.7051 22.5977C56.0762 22.5039 56.4551 22.457 56.8418 22.457C57.7207 22.457 58.3613 22.5566 58.7637 22.7559V24.1328C58.2871 23.7891 57.6738 23.6172 56.9238 23.6172C56.7168 23.6172 56.5098 23.6367 56.3027 23.6758C56.0996 23.7148 55.916 23.7793 55.752 23.8691C55.5918 23.959 55.4609 24.0742 55.3594 24.2148C55.2578 24.3555 55.207 24.5254 55.207 24.7246C55.207 24.9121 55.2461 25.0742 55.3242 25.2109C55.4023 25.3477 55.5156 25.4727 55.6641 25.5859C55.8164 25.6992 56 25.8105 56.2148 25.9199C56.4336 26.0254 56.6855 26.1406 56.9707 26.2656C57.2637 26.418 57.5391 26.5781 57.7969 26.7461C58.0586 26.9141 58.2871 27.0996 58.4824 27.3027C58.6816 27.5059 58.8379 27.7324 58.9512 27.9824C59.0684 28.2285 59.127 28.5098 59.127 28.8262C59.127 29.252 59.041 29.6113 58.8691 29.9043C58.6973 30.1973 58.4648 30.4355 58.1719 30.6191C57.8828 30.8027 57.5488 30.9355 57.1699 31.0176C56.791 31.0996 56.3906 31.1406 55.9688 31.1406C55.8281 31.1406 55.6543 31.1289 55.4473 31.1055C55.2441 31.0859 55.0352 31.0547 54.8203 31.0117C54.6055 30.9727 54.4023 30.9238 54.2109 30.8652C54.0195 30.8066 53.8652 30.7402 53.748 30.666Z" fill="#8E8E8E"/>
<defs>
<clipPath id="clip0_173_2168">
<rect width="12" height="12" fill="white" transform="translate(0 20)"/>
</clipPath>
</defs>
</svg>
