<svg width="111" height="52" viewBox="0 0 111 52" fill="none" xmlns="http://www.w3.org/2000/svg">
<g clip-path="url(#clip0_173_2161)">
<path d="M7.875 27.05L5.075 25.425C4.95 25.35 4.825 25.35 4.7 25.425C4.575 25.475 4.5 25.6 4.5 25.75V29C4.5 29.125 4.575 29.25 4.7 29.325C4.75 29.35 4.825 29.375 4.875 29.375C4.95 29.375 5 29.35 5.075 29.325L7.875 27.7C8 27.625 8.05 27.5 8.05 27.375C8.05 27.25 7.975 27.125 7.875 27.05ZM10.975 21C10.35 20.4 9.6 20 7.925 20H4.05C2.4 20 1.65 20.4 1 21.025C0.4 21.65 0 22.4 0 24.05V27.925C0 29.575 0.4 30.35 1.025 30.975C1.65 31.575 2.4 31.975 4.075 31.975H7.95C9.6 31.975 10.375 31.575 11 30.95C11.6 30.325 12 29.575 12 27.9V24.05C12 22.4 11.6 21.65 10.975 21ZM7.95 20.75C9.525 20.75 10.05 21.15 10.45 21.55C10.75 21.85 11.025 22.225 11.175 23H8.85L7.575 20.75H7.95ZM4.05 20.75H6.675L7.95 23H4.95L3.675 20.75H4.05ZM1.55 21.55C1.825 21.275 2.175 21 2.875 20.85L4.1 23H0.825C0.975 22.225 1.25 21.85 1.55 21.55ZM11.25 27.95C11.25 29.525 10.85 30.05 10.45 30.45C10.05 30.85 9.5 31.25 7.95 31.25H4.05C2.475 31.25 1.95 30.85 1.55 30.45C1.15 30.05 0.75 29.5 0.75 27.95V23.75H11.25V27.95Z" fill="#8E8E8E"/>
</g>
<path d="M25.5293 31H23.9004L22.5586 28.75C22.4375 28.543 22.3184 28.3672 22.2012 28.2227C22.0879 28.0742 21.9707 27.9531 21.8496 27.8594C21.7324 27.7656 21.6035 27.6973 21.4629 27.6543C21.3223 27.6113 21.1641 27.5898 20.9883 27.5898H20.4258V31H19.0371V22.5977H21.8027C22.1973 22.5977 22.5605 22.6445 22.8926 22.7383C23.2246 22.832 23.5137 22.9746 23.7598 23.166C24.0059 23.3535 24.1973 23.5898 24.334 23.875C24.4746 24.1562 24.5449 24.4863 24.5449 24.8652C24.5449 25.1621 24.5 25.4355 24.4102 25.6855C24.3242 25.9316 24.1992 26.1523 24.0352 26.3477C23.875 26.5391 23.6797 26.7031 23.4492 26.8398C23.2227 26.9766 22.9668 27.082 22.6816 27.1562V27.1797C22.834 27.2656 22.9668 27.3613 23.0801 27.4668C23.1934 27.5684 23.3008 27.6738 23.4023 27.7832C23.5039 27.8926 23.6035 28.0176 23.7012 28.1582C23.8027 28.2949 23.9141 28.4551 24.0352 28.6387L25.5293 31ZM20.4258 23.7285V26.459H21.5859C21.8008 26.459 21.998 26.4258 22.1777 26.3594C22.3613 26.293 22.5195 26.1973 22.6523 26.0723C22.7852 25.9473 22.8887 25.7949 22.9629 25.6152C23.0371 25.4355 23.0742 25.2344 23.0742 25.0117C23.0742 24.6094 22.9473 24.2949 22.6934 24.0684C22.4395 23.8418 22.0742 23.7285 21.5977 23.7285H20.4258ZM31.2305 31H26.5137V22.5977H31.043V23.7812H27.9082V26.1602H30.7969V27.3379H27.9082V29.8223H31.2305V31ZM37.4414 31H32.7246V22.5977H37.2539V23.7812H34.1191V26.1602H37.0078V27.3379H34.1191V29.8223H37.4414V31ZM43.5879 31H38.9355V22.5977H40.3301V29.8223H43.5879V31ZM44.4199 30.666V29.2305C44.5488 29.3477 44.7012 29.4531 44.877 29.5469C45.0566 29.6406 45.2461 29.7207 45.4453 29.7871C45.6445 29.8496 45.8438 29.8984 46.043 29.9336C46.2422 29.9688 46.4258 29.9863 46.5938 29.9863C47.1797 29.9863 47.6152 29.8887 47.9004 29.6934C48.1895 29.498 48.334 29.2148 48.334 28.8438C48.334 28.6445 48.2852 28.4727 48.1875 28.3281C48.0938 28.1797 47.9609 28.0449 47.7891 27.9238C47.6172 27.8027 47.4141 27.6875 47.1797 27.5781C46.9492 27.4648 46.7012 27.3477 46.4355 27.2266C46.1504 27.0742 45.8848 26.9199 45.6387 26.7637C45.3926 26.6074 45.1777 26.4355 44.9941 26.248C44.8145 26.0566 44.6719 25.8418 44.5664 25.6035C44.4648 25.3652 44.4141 25.0859 44.4141 24.7656C44.4141 24.3711 44.502 24.0293 44.6777 23.7402C44.8574 23.4473 45.0918 23.207 45.3809 23.0195C45.6738 22.8281 46.0059 22.6875 46.377 22.5977C46.748 22.5039 47.127 22.457 47.5137 22.457C48.3926 22.457 49.0332 22.5566 49.4355 22.7559V24.1328C48.959 23.7891 48.3457 23.6172 47.5957 23.6172C47.3887 23.6172 47.1816 23.6367 46.9746 23.6758C46.7715 23.7148 46.5879 23.7793 46.4238 23.8691C46.2637 23.959 46.1328 24.0742 46.0312 24.2148C45.9297 24.3555 45.8789 24.5254 45.8789 24.7246C45.8789 24.9121 45.918 25.0742 45.9961 25.2109C46.0742 25.3477 46.1875 25.4727 46.3359 25.5859C46.4883 25.6992 46.6719 25.8105 46.8867 25.9199C47.1055 26.0254 47.3574 26.1406 47.6426 26.2656C47.9355 26.418 48.2109 26.5781 48.4688 26.7461C48.7305 26.9141 48.959 27.0996 49.1543 27.3027C49.3535 27.5059 49.5098 27.7324 49.623 27.9824C49.7402 28.2285 49.7988 28.5098 49.7988 28.8262C49.7988 29.252 49.7129 29.6113 49.541 29.9043C49.3691 30.1973 49.1367 30.4355 48.8438 30.6191C48.5547 30.8027 48.2207 30.9355 47.8418 31.0176C47.4629 31.0996 47.0625 31.1406 46.6406 31.1406C46.5 31.1406 46.3262 31.1289 46.1191 31.1055C45.916 31.0859 45.707 31.0547 45.4922 31.0117C45.2773 30.9727 45.0742 30.9238 44.8828 30.8652C44.6914 30.8066 44.5371 30.7402 44.4199 30.666Z" fill="#8E8E8E"/>
<defs>
<clipPath id="clip0_173_2161">
<rect width="12" height="12" fill="white" transform="translate(0 20)"/>
</clipPath>
</defs>
</svg>
