<svg width="662" height="58" viewBox="0 0 662 58" fill="none" xmlns="http://www.w3.org/2000/svg">
<path d="M17.668 10H16.6895V4.36328C16.6895 3.91797 16.7168 3.37305 16.7715 2.72852H16.748C16.6543 3.10742 16.5703 3.37891 16.4961 3.54297L13.625 10H13.1445L10.2793 3.58984C10.1973 3.40234 10.1133 3.11523 10.0273 2.72852H10.0039C10.0352 3.06445 10.0508 3.61328 10.0508 4.375V10H9.10156V1.59766H10.4023L12.9805 7.45703C13.1797 7.90625 13.3086 8.24219 13.3672 8.46484H13.4023C13.5703 8.00391 13.7051 7.66016 13.8066 7.43359L16.4375 1.59766H17.668V10ZM24.5762 7.24023H20.3398C20.3555 7.9082 20.5352 8.42383 20.8789 8.78711C21.2227 9.15039 21.6953 9.33203 22.2969 9.33203C22.9727 9.33203 23.5938 9.10938 24.1602 8.66406V9.56641C23.6328 9.94922 22.9355 10.1406 22.0684 10.1406C21.2207 10.1406 20.5547 9.86914 20.0703 9.32617C19.5859 8.7793 19.3438 8.01172 19.3438 7.02344C19.3438 6.08984 19.6074 5.33008 20.1348 4.74414C20.666 4.1543 21.3242 3.85938 22.1094 3.85938C22.8945 3.85938 23.502 4.11328 23.9316 4.62109C24.3613 5.12891 24.5762 5.83398 24.5762 6.73633V7.24023ZM23.5918 6.42578C23.5879 5.87109 23.4531 5.43945 23.1875 5.13086C22.9258 4.82227 22.5605 4.66797 22.0918 4.66797C21.6387 4.66797 21.2539 4.83008 20.9375 5.1543C20.6211 5.47852 20.4258 5.90234 20.3516 6.42578H23.5918ZM28.8184 9.94141C28.5918 10.0664 28.293 10.1289 27.9219 10.1289C26.8711 10.1289 26.3457 9.54297 26.3457 8.37109V4.82031H25.3145V4H26.3457V2.53516L27.3066 2.22461V4H28.8184V4.82031H27.3066V8.20117C27.3066 8.60352 27.375 8.89062 27.5117 9.0625C27.6484 9.23438 27.875 9.32031 28.1914 9.32031C28.4336 9.32031 28.6426 9.25391 28.8184 9.12109V9.94141ZM34.3965 10H33.4355V9.0625H33.4121C32.9941 9.78125 32.3789 10.1406 31.5664 10.1406C30.9688 10.1406 30.5 9.98242 30.1602 9.66602C29.8242 9.34961 29.6562 8.92969 29.6562 8.40625C29.6562 7.28516 30.3164 6.63281 31.6367 6.44922L33.4355 6.19727C33.4355 5.17773 33.0234 4.66797 32.1992 4.66797C31.4766 4.66797 30.8242 4.91406 30.2422 5.40625V4.42188C30.832 4.04688 31.5117 3.85938 32.2812 3.85938C33.6914 3.85938 34.3965 4.60547 34.3965 6.09766V10ZM33.4355 6.96484L31.9883 7.16406C31.543 7.22656 31.207 7.33789 30.9805 7.49805C30.7539 7.6543 30.6406 7.93359 30.6406 8.33594C30.6406 8.62891 30.7441 8.86914 30.9512 9.05664C31.1621 9.24023 31.4414 9.33203 31.7891 9.33203C32.2656 9.33203 32.6582 9.16602 32.9668 8.83398C33.2793 8.49805 33.4355 8.07422 33.4355 7.5625V6.96484Z" fill="#8E8E8E"/>
<path d="M59.6055 10H58.5156L57.625 7.64453H54.0625L53.2246 10H52.1289L55.3516 1.59766H56.3711L59.6055 10ZM57.3027 6.75977L55.9844 3.17969C55.9414 3.0625 55.8984 2.875 55.8555 2.61719H55.832C55.793 2.85547 55.748 3.04297 55.6973 3.17969L54.3906 6.75977H57.3027ZM61.7031 9.13281H61.6797V10H60.7188V1.11719H61.6797V5.05469H61.7031C62.1758 4.25781 62.8672 3.85938 63.7773 3.85938C64.5469 3.85938 65.1484 4.12891 65.582 4.66797C66.0195 5.20312 66.2383 5.92188 66.2383 6.82422C66.2383 7.82812 65.9941 8.63281 65.5059 9.23828C65.0176 9.83984 64.3496 10.1406 63.502 10.1406C62.709 10.1406 62.1094 9.80469 61.7031 9.13281ZM61.6797 6.71289V7.55078C61.6797 8.04688 61.8398 8.46875 62.1602 8.81641C62.4844 9.16016 62.8945 9.33203 63.3906 9.33203C63.9727 9.33203 64.4277 9.10938 64.7559 8.66406C65.0879 8.21875 65.2539 7.59961 65.2539 6.80664C65.2539 6.13867 65.0996 5.61523 64.791 5.23633C64.4824 4.85742 64.0645 4.66797 63.5371 4.66797C62.9785 4.66797 62.5293 4.86328 62.1895 5.25391C61.8496 5.64062 61.6797 6.12695 61.6797 6.71289ZM70.2812 10.1406C69.3945 10.1406 68.6855 9.86133 68.1543 9.30273C67.627 8.74023 67.3633 7.99609 67.3633 7.07031C67.3633 6.0625 67.6387 5.27539 68.1895 4.70898C68.7402 4.14258 69.4844 3.85938 70.4219 3.85938C71.3164 3.85938 72.0137 4.13477 72.5137 4.68555C73.0176 5.23633 73.2695 6 73.2695 6.97656C73.2695 7.93359 72.998 8.70117 72.4551 9.2793C71.916 9.85352 71.1914 10.1406 70.2812 10.1406ZM70.3516 4.66797C69.7344 4.66797 69.2461 4.87891 68.8867 5.30078C68.5273 5.71875 68.3477 6.29688 68.3477 7.03516C68.3477 7.74609 68.5293 8.30664 68.8926 8.7168C69.2559 9.12695 69.7422 9.33203 70.3516 9.33203C70.9727 9.33203 71.4492 9.13086 71.7812 8.72852C72.1172 8.32617 72.2852 7.75391 72.2852 7.01172C72.2852 6.26172 72.1172 5.68359 71.7812 5.27734C71.4492 4.87109 70.9727 4.66797 70.3516 4.66797ZM79.6562 10H78.6953V9.05078H78.6719C78.2734 9.77734 77.6562 10.1406 76.8203 10.1406C75.3906 10.1406 74.6758 9.28906 74.6758 7.58594V4H75.6309V7.43359C75.6309 8.69922 76.1152 9.33203 77.084 9.33203C77.5527 9.33203 77.9375 9.16016 78.2383 8.81641C78.543 8.46875 78.6953 8.01562 78.6953 7.45703V4H79.6562V10ZM84.3848 9.94141C84.1582 10.0664 83.8594 10.1289 83.4883 10.1289C82.4375 10.1289 81.9121 9.54297 81.9121 8.37109V4.82031H80.8809V4H81.9121V2.53516L82.873 2.22461V4H84.3848V4.82031H82.873V8.20117C82.873 8.60352 82.9414 8.89062 83.0781 9.0625C83.2148 9.23438 83.4414 9.32031 83.7578 9.32031C84 9.32031 84.209 9.25391 84.3848 9.12109V9.94141Z" fill="#8E8E8E"/>
<path d="M102.102 10V1.59766H104.492C105.219 1.59766 105.795 1.77539 106.221 2.13086C106.646 2.48633 106.859 2.94922 106.859 3.51953C106.859 3.99609 106.73 4.41016 106.473 4.76172C106.215 5.11328 105.859 5.36328 105.406 5.51172V5.53516C105.973 5.60156 106.426 5.81641 106.766 6.17969C107.105 6.53906 107.275 7.00781 107.275 7.58594C107.275 8.30469 107.018 8.88672 106.502 9.33203C105.986 9.77734 105.336 10 104.551 10H102.102ZM103.086 2.48828V5.20117H104.094C104.633 5.20117 105.057 5.07227 105.365 4.81445C105.674 4.55273 105.828 4.18555 105.828 3.71289C105.828 2.89648 105.291 2.48828 104.217 2.48828H103.086ZM103.086 6.08594V9.10938H104.422C105 9.10938 105.447 8.97266 105.764 8.69922C106.084 8.42578 106.244 8.05078 106.244 7.57422C106.244 6.58203 105.568 6.08594 104.217 6.08594H103.086ZM109.812 10H108.852V1.11719H109.812V10ZM114.266 10.1406C113.379 10.1406 112.67 9.86133 112.139 9.30273C111.611 8.74023 111.348 7.99609 111.348 7.07031C111.348 6.0625 111.623 5.27539 112.174 4.70898C112.725 4.14258 113.469 3.85938 114.406 3.85938C115.301 3.85938 115.998 4.13477 116.498 4.68555C117.002 5.23633 117.254 6 117.254 6.97656C117.254 7.93359 116.982 8.70117 116.439 9.2793C115.9 9.85352 115.176 10.1406 114.266 10.1406ZM114.336 4.66797C113.719 4.66797 113.23 4.87891 112.871 5.30078C112.512 5.71875 112.332 6.29688 112.332 7.03516C112.332 7.74609 112.514 8.30664 112.877 8.7168C113.24 9.12695 113.727 9.33203 114.336 9.33203C114.957 9.33203 115.434 9.13086 115.766 8.72852C116.102 8.32617 116.27 7.75391 116.27 7.01172C116.27 6.26172 116.102 5.68359 115.766 5.27734C115.434 4.87109 114.957 4.66797 114.336 4.66797ZM123.91 9.51953C123.91 11.7227 122.855 12.8242 120.746 12.8242C120.004 12.8242 119.355 12.6836 118.801 12.4023V11.4414C119.477 11.8164 120.121 12.0039 120.734 12.0039C122.211 12.0039 122.949 11.2188 122.949 9.64844V8.99219H122.926C122.469 9.75781 121.781 10.1406 120.863 10.1406C120.117 10.1406 119.516 9.875 119.059 9.34375C118.605 8.80859 118.379 8.0918 118.379 7.19336C118.379 6.17383 118.623 5.36328 119.111 4.76172C119.604 4.16016 120.275 3.85938 121.127 3.85938C121.936 3.85938 122.535 4.18359 122.926 4.83203H122.949V4H123.91V9.51953ZM122.949 7.28711V6.40234C122.949 5.92578 122.787 5.51758 122.463 5.17773C122.143 4.83789 121.742 4.66797 121.262 4.66797C120.668 4.66797 120.203 4.88477 119.867 5.31836C119.531 5.74805 119.363 6.35156 119.363 7.12891C119.363 7.79688 119.523 8.33203 119.844 8.73438C120.168 9.13281 120.596 9.33203 121.127 9.33203C121.666 9.33203 122.104 9.14062 122.439 8.75781C122.779 8.375 122.949 7.88477 122.949 7.28711Z" fill="#8E8E8E"/>
<path d="M144.252 6.98828C144.252 7.98438 144.041 8.75977 143.619 9.31445C143.197 9.86523 142.633 10.1406 141.926 10.1406C141.598 10.1406 141.328 10.0938 141.117 10V9.02734C141.328 9.17969 141.602 9.25586 141.938 9.25586C142.824 9.25586 143.268 8.50391 143.268 7V1.59766H144.252V6.98828ZM148.77 10.1406C147.883 10.1406 147.174 9.86133 146.643 9.30273C146.115 8.74023 145.852 7.99609 145.852 7.07031C145.852 6.0625 146.127 5.27539 146.678 4.70898C147.229 4.14258 147.973 3.85938 148.91 3.85938C149.805 3.85938 150.502 4.13477 151.002 4.68555C151.506 5.23633 151.758 6 151.758 6.97656C151.758 7.93359 151.486 8.70117 150.943 9.2793C150.404 9.85352 149.68 10.1406 148.77 10.1406ZM148.84 4.66797C148.223 4.66797 147.734 4.87891 147.375 5.30078C147.016 5.71875 146.836 6.29688 146.836 7.03516C146.836 7.74609 147.018 8.30664 147.381 8.7168C147.744 9.12695 148.23 9.33203 148.84 9.33203C149.461 9.33203 149.938 9.13086 150.27 8.72852C150.605 8.32617 150.773 7.75391 150.773 7.01172C150.773 6.26172 150.605 5.68359 150.27 5.27734C149.938 4.87109 149.461 4.66797 148.84 4.66797ZM154.277 9.13281H154.254V10H153.293V1.11719H154.254V5.05469H154.277C154.75 4.25781 155.441 3.85938 156.352 3.85938C157.121 3.85938 157.723 4.12891 158.156 4.66797C158.594 5.20312 158.812 5.92188 158.812 6.82422C158.812 7.82812 158.568 8.63281 158.08 9.23828C157.592 9.83984 156.924 10.1406 156.076 10.1406C155.283 10.1406 154.684 9.80469 154.277 9.13281ZM154.254 6.71289V7.55078C154.254 8.04688 154.414 8.46875 154.734 8.81641C155.059 9.16016 155.469 9.33203 155.965 9.33203C156.547 9.33203 157.002 9.10938 157.33 8.66406C157.662 8.21875 157.828 7.59961 157.828 6.80664C157.828 6.13867 157.674 5.61523 157.365 5.23633C157.057 4.85742 156.639 4.66797 156.111 4.66797C155.553 4.66797 155.104 4.86328 154.764 5.25391C154.424 5.64062 154.254 6.12695 154.254 6.71289ZM159.984 9.7832V8.75195C160.508 9.13867 161.084 9.33203 161.713 9.33203C162.557 9.33203 162.979 9.05078 162.979 8.48828C162.979 8.32812 162.941 8.19336 162.867 8.08398C162.797 7.9707 162.699 7.87109 162.574 7.78516C162.453 7.69922 162.309 7.62305 162.141 7.55664C161.977 7.48633 161.799 7.41406 161.607 7.33984C161.342 7.23438 161.107 7.12891 160.904 7.02344C160.705 6.91406 160.537 6.79297 160.4 6.66016C160.268 6.52344 160.166 6.36914 160.096 6.19727C160.029 6.02539 159.996 5.82422 159.996 5.59375C159.996 5.3125 160.061 5.06445 160.189 4.84961C160.318 4.63086 160.49 4.44922 160.705 4.30469C160.92 4.15625 161.164 4.04492 161.438 3.9707C161.715 3.89648 162 3.85938 162.293 3.85938C162.812 3.85938 163.277 3.94922 163.688 4.12891V5.10156C163.246 4.8125 162.738 4.66797 162.164 4.66797C161.984 4.66797 161.822 4.68945 161.678 4.73242C161.533 4.77148 161.408 4.82812 161.303 4.90234C161.201 4.97656 161.121 5.06641 161.062 5.17188C161.008 5.27344 160.98 5.38672 160.98 5.51172C160.98 5.66797 161.008 5.79883 161.062 5.9043C161.121 6.00977 161.205 6.10352 161.314 6.18555C161.424 6.26758 161.557 6.3418 161.713 6.4082C161.869 6.47461 162.047 6.54688 162.246 6.625C162.512 6.72656 162.75 6.83203 162.961 6.94141C163.172 7.04688 163.352 7.16797 163.5 7.30469C163.648 7.4375 163.762 7.5918 163.84 7.76758C163.922 7.94336 163.963 8.15234 163.963 8.39453C163.963 8.69141 163.896 8.94922 163.764 9.16797C163.635 9.38672 163.461 9.56836 163.242 9.71289C163.023 9.85742 162.771 9.96484 162.486 10.0352C162.201 10.1055 161.902 10.1406 161.59 10.1406C160.973 10.1406 160.438 10.0215 159.984 9.7832Z" fill="#8E8E8E"/>
<path d="M188.418 10H187.434V6.16797H183.086V10H182.102V1.59766H183.086V5.2832H187.434V1.59766H188.418V10ZM195.314 7.24023H191.078C191.094 7.9082 191.273 8.42383 191.617 8.78711C191.961 9.15039 192.434 9.33203 193.035 9.33203C193.711 9.33203 194.332 9.10938 194.898 8.66406V9.56641C194.371 9.94922 193.674 10.1406 192.807 10.1406C191.959 10.1406 191.293 9.86914 190.809 9.32617C190.324 8.7793 190.082 8.01172 190.082 7.02344C190.082 6.08984 190.346 5.33008 190.873 4.74414C191.404 4.1543 192.062 3.85938 192.848 3.85938C193.633 3.85938 194.24 4.11328 194.67 4.62109C195.1 5.12891 195.314 5.83398 195.314 6.73633V7.24023ZM194.33 6.42578C194.326 5.87109 194.191 5.43945 193.926 5.13086C193.664 4.82227 193.299 4.66797 192.83 4.66797C192.377 4.66797 191.992 4.83008 191.676 5.1543C191.359 5.47852 191.164 5.90234 191.09 6.42578H194.33ZM197.734 10H196.773V1.11719H197.734V10ZM200.664 9.13281H200.641V12.7598H199.68V4H200.641V5.05469H200.664C201.137 4.25781 201.828 3.85938 202.738 3.85938C203.512 3.85938 204.115 4.12891 204.549 4.66797C204.982 5.20312 205.199 5.92188 205.199 6.82422C205.199 7.82812 204.955 8.63281 204.467 9.23828C203.979 9.83984 203.311 10.1406 202.463 10.1406C201.686 10.1406 201.086 9.80469 200.664 9.13281ZM200.641 6.71289V7.55078C200.641 8.04688 200.801 8.46875 201.121 8.81641C201.445 9.16016 201.855 9.33203 202.352 9.33203C202.934 9.33203 203.389 9.10938 203.717 8.66406C204.049 8.21875 204.215 7.59961 204.215 6.80664C204.215 6.13867 204.061 5.61523 203.752 5.23633C203.443 4.85742 203.025 4.66797 202.498 4.66797C201.939 4.66797 201.49 4.86328 201.15 5.25391C200.811 5.64062 200.641 6.12695 200.641 6.71289Z" fill="#8E8E8E"/>
<path d="M229.605 10H228.516L227.625 7.64453H224.062L223.225 10H222.129L225.352 1.59766H226.371L229.605 10ZM227.303 6.75977L225.984 3.17969C225.941 3.0625 225.898 2.875 225.855 2.61719H225.832C225.793 2.85547 225.748 3.04297 225.697 3.17969L224.391 6.75977H227.303ZM231.832 6.82422V10H230.848V1.59766H233.156C234.055 1.59766 234.75 1.81641 235.242 2.25391C235.738 2.69141 235.986 3.30859 235.986 4.10547C235.986 4.90234 235.711 5.55469 235.16 6.0625C234.613 6.57031 233.873 6.82422 232.939 6.82422H231.832ZM231.832 2.48828V5.93359H232.863C233.543 5.93359 234.061 5.7793 234.416 5.4707C234.775 5.1582 234.955 4.71875 234.955 4.15234C234.955 3.04297 234.299 2.48828 232.986 2.48828H231.832ZM238.559 10H237.574V1.59766H238.559V10Z" fill="#8E8E8E"/>
<path d="M258.086 6.82422V10H257.102V1.59766H259.41C260.309 1.59766 261.004 1.81641 261.496 2.25391C261.992 2.69141 262.24 3.30859 262.24 4.10547C262.24 4.90234 261.965 5.55469 261.414 6.0625C260.867 6.57031 260.127 6.82422 259.193 6.82422H258.086ZM258.086 2.48828V5.93359H259.117C259.797 5.93359 260.314 5.7793 260.67 5.4707C261.029 5.1582 261.209 4.71875 261.209 4.15234C261.209 3.04297 260.553 2.48828 259.24 2.48828H258.086ZM266.828 4.97266C266.66 4.84375 266.418 4.7793 266.102 4.7793C265.691 4.7793 265.348 4.97266 265.07 5.35938C264.797 5.74609 264.66 6.27344 264.66 6.94141V10H263.699V4H264.66V5.23633H264.684C264.82 4.81445 265.029 4.48633 265.311 4.25195C265.592 4.01367 265.906 3.89453 266.254 3.89453C266.504 3.89453 266.695 3.92188 266.828 3.97656V4.97266ZM268.363 2.47656C268.191 2.47656 268.045 2.41797 267.924 2.30078C267.803 2.18359 267.742 2.03516 267.742 1.85547C267.742 1.67578 267.803 1.52734 267.924 1.41016C268.045 1.28906 268.191 1.22852 268.363 1.22852C268.539 1.22852 268.688 1.28906 268.809 1.41016C268.934 1.52734 268.996 1.67578 268.996 1.85547C268.996 2.02734 268.934 2.17383 268.809 2.29492C268.688 2.41602 268.539 2.47656 268.363 2.47656ZM268.832 10H267.871V4H268.832V10ZM275.494 4L273.104 10H272.16L269.887 4H270.941L272.465 8.35938C272.578 8.67969 272.648 8.95898 272.676 9.19727H272.699C272.738 8.89648 272.801 8.625 272.887 8.38281L274.48 4H275.494ZM280.826 10H279.865V9.0625H279.842C279.424 9.78125 278.809 10.1406 277.996 10.1406C277.398 10.1406 276.93 9.98242 276.59 9.66602C276.254 9.34961 276.086 8.92969 276.086 8.40625C276.086 7.28516 276.746 6.63281 278.066 6.44922L279.865 6.19727C279.865 5.17773 279.453 4.66797 278.629 4.66797C277.906 4.66797 277.254 4.91406 276.672 5.40625V4.42188C277.262 4.04688 277.941 3.85938 278.711 3.85938C280.121 3.85938 280.826 4.60547 280.826 6.09766V10ZM279.865 6.96484L278.418 7.16406C277.973 7.22656 277.637 7.33789 277.41 7.49805C277.184 7.6543 277.07 7.93359 277.07 8.33594C277.07 8.62891 277.174 8.86914 277.381 9.05664C277.592 9.24023 277.871 9.33203 278.219 9.33203C278.695 9.33203 279.088 9.16602 279.396 8.83398C279.709 8.49805 279.865 8.07422 279.865 7.5625V6.96484ZM286.727 9.72461C286.266 10.002 285.719 10.1406 285.086 10.1406C284.23 10.1406 283.539 9.86328 283.012 9.30859C282.488 8.75 282.227 8.02734 282.227 7.14062C282.227 6.15234 282.51 5.35938 283.076 4.76172C283.643 4.16016 284.398 3.85938 285.344 3.85938C285.871 3.85938 286.336 3.95703 286.738 4.15234V5.13672C286.293 4.82422 285.816 4.66797 285.309 4.66797C284.695 4.66797 284.191 4.88867 283.797 5.33008C283.406 5.76758 283.211 6.34375 283.211 7.05859C283.211 7.76172 283.395 8.31641 283.762 8.72266C284.133 9.12891 284.629 9.33203 285.25 9.33203C285.773 9.33203 286.266 9.1582 286.727 8.81055V9.72461ZM292.955 4L290.195 10.9609C289.703 12.2031 289.012 12.8242 288.121 12.8242C287.871 12.8242 287.662 12.7988 287.494 12.748V11.8867C287.701 11.957 287.891 11.9922 288.062 11.9922C288.547 11.9922 288.91 11.7031 289.152 11.125L289.633 9.98828L287.289 4H288.355L289.979 8.61719C289.998 8.67578 290.039 8.82812 290.102 9.07422H290.137C290.156 8.98047 290.195 8.83203 290.254 8.62891L291.959 4H292.955Z" fill="#8E8E8E"/>
<path d="M316.07 2.48828H313.645V10H312.66V2.48828H310.24V1.59766H316.07V2.48828ZM320.916 7.24023H316.68C316.695 7.9082 316.875 8.42383 317.219 8.78711C317.562 9.15039 318.035 9.33203 318.637 9.33203C319.312 9.33203 319.934 9.10938 320.5 8.66406V9.56641C319.973 9.94922 319.275 10.1406 318.408 10.1406C317.561 10.1406 316.895 9.86914 316.41 9.32617C315.926 8.7793 315.684 8.01172 315.684 7.02344C315.684 6.08984 315.947 5.33008 316.475 4.74414C317.006 4.1543 317.664 3.85938 318.449 3.85938C319.234 3.85938 319.842 4.11328 320.271 4.62109C320.701 5.12891 320.916 5.83398 320.916 6.73633V7.24023ZM319.932 6.42578C319.928 5.87109 319.793 5.43945 319.527 5.13086C319.266 4.82227 318.9 4.66797 318.432 4.66797C317.979 4.66797 317.594 4.83008 317.277 5.1543C316.961 5.47852 316.766 5.90234 316.691 6.42578H319.932ZM325.504 4.97266C325.336 4.84375 325.094 4.7793 324.777 4.7793C324.367 4.7793 324.023 4.97266 323.746 5.35938C323.473 5.74609 323.336 6.27344 323.336 6.94141V10H322.375V4H323.336V5.23633H323.359C323.496 4.81445 323.705 4.48633 323.986 4.25195C324.268 4.01367 324.582 3.89453 324.93 3.89453C325.18 3.89453 325.371 3.92188 325.504 3.97656V4.97266ZM335.066 10H334.105V6.55469C334.105 5.89062 334.002 5.41016 333.795 5.11328C333.592 4.81641 333.248 4.66797 332.764 4.66797C332.354 4.66797 332.004 4.85547 331.715 5.23047C331.43 5.60547 331.287 6.05469 331.287 6.57812V10H330.326V6.4375C330.326 5.25781 329.871 4.66797 328.961 4.66797C328.539 4.66797 328.191 4.8457 327.918 5.20117C327.645 5.55273 327.508 6.01172 327.508 6.57812V10H326.547V4H327.508V4.94922H327.531C327.957 4.22266 328.578 3.85938 329.395 3.85938C329.805 3.85938 330.162 3.97461 330.467 4.20508C330.771 4.43164 330.98 4.73047 331.094 5.10156C331.539 4.27344 332.203 3.85938 333.086 3.85938C334.406 3.85938 335.066 4.67383 335.066 6.30273V10ZM336.52 9.7832V8.75195C337.043 9.13867 337.619 9.33203 338.248 9.33203C339.092 9.33203 339.514 9.05078 339.514 8.48828C339.514 8.32812 339.477 8.19336 339.402 8.08398C339.332 7.9707 339.234 7.87109 339.109 7.78516C338.988 7.69922 338.844 7.62305 338.676 7.55664C338.512 7.48633 338.334 7.41406 338.143 7.33984C337.877 7.23438 337.643 7.12891 337.439 7.02344C337.24 6.91406 337.072 6.79297 336.936 6.66016C336.803 6.52344 336.701 6.36914 336.631 6.19727C336.564 6.02539 336.531 5.82422 336.531 5.59375C336.531 5.3125 336.596 5.06445 336.725 4.84961C336.854 4.63086 337.025 4.44922 337.24 4.30469C337.455 4.15625 337.699 4.04492 337.973 3.9707C338.25 3.89648 338.535 3.85938 338.828 3.85938C339.348 3.85938 339.812 3.94922 340.223 4.12891V5.10156C339.781 4.8125 339.273 4.66797 338.699 4.66797C338.52 4.66797 338.357 4.68945 338.213 4.73242C338.068 4.77148 337.943 4.82812 337.838 4.90234C337.736 4.97656 337.656 5.06641 337.598 5.17188C337.543 5.27344 337.516 5.38672 337.516 5.51172C337.516 5.66797 337.543 5.79883 337.598 5.9043C337.656 6.00977 337.74 6.10352 337.85 6.18555C337.959 6.26758 338.092 6.3418 338.248 6.4082C338.404 6.47461 338.582 6.54688 338.781 6.625C339.047 6.72656 339.285 6.83203 339.496 6.94141C339.707 7.04688 339.887 7.16797 340.035 7.30469C340.184 7.4375 340.297 7.5918 340.375 7.76758C340.457 7.94336 340.498 8.15234 340.498 8.39453C340.498 8.69141 340.432 8.94922 340.299 9.16797C340.17 9.38672 339.996 9.56836 339.777 9.71289C339.559 9.85742 339.307 9.96484 339.021 10.0352C338.736 10.1055 338.438 10.1406 338.125 10.1406C337.508 10.1406 336.973 10.0215 336.52 9.7832Z" fill="#8E8E8E"/>
<path d="M364.07 2.48828H361.645V10H360.66V2.48828H358.24V1.59766H364.07V2.48828ZM366.602 10.1406C365.715 10.1406 365.006 9.86133 364.475 9.30273C363.947 8.74023 363.684 7.99609 363.684 7.07031C363.684 6.0625 363.959 5.27539 364.51 4.70898C365.061 4.14258 365.805 3.85938 366.742 3.85938C367.637 3.85938 368.334 4.13477 368.834 4.68555C369.338 5.23633 369.59 6 369.59 6.97656C369.59 7.93359 369.318 8.70117 368.775 9.2793C368.236 9.85352 367.512 10.1406 366.602 10.1406ZM366.672 4.66797C366.055 4.66797 365.566 4.87891 365.207 5.30078C364.848 5.71875 364.668 6.29688 364.668 7.03516C364.668 7.74609 364.85 8.30664 365.213 8.7168C365.576 9.12695 366.062 9.33203 366.672 9.33203C367.293 9.33203 367.77 9.13086 368.102 8.72852C368.438 8.32617 368.605 7.75391 368.605 7.01172C368.605 6.26172 368.438 5.68359 368.102 5.27734C367.77 4.87109 367.293 4.66797 366.672 4.66797ZM372.109 9.13281H372.086V12.7598H371.125V4H372.086V5.05469H372.109C372.582 4.25781 373.273 3.85938 374.184 3.85938C374.957 3.85938 375.561 4.12891 375.994 4.66797C376.428 5.20312 376.645 5.92188 376.645 6.82422C376.645 7.82812 376.4 8.63281 375.912 9.23828C375.424 9.83984 374.756 10.1406 373.908 10.1406C373.131 10.1406 372.531 9.80469 372.109 9.13281ZM372.086 6.71289V7.55078C372.086 8.04688 372.246 8.46875 372.566 8.81641C372.891 9.16016 373.301 9.33203 373.797 9.33203C374.379 9.33203 374.834 9.10938 375.162 8.66406C375.494 8.21875 375.66 7.59961 375.66 6.80664C375.66 6.13867 375.506 5.61523 375.197 5.23633C374.889 4.85742 374.471 4.66797 373.943 4.66797C373.385 4.66797 372.936 4.86328 372.596 5.25391C372.256 5.64062 372.086 6.12695 372.086 6.71289ZM388.105 10H387.016L386.125 7.64453H382.562L381.725 10H380.629L383.852 1.59766H384.871L388.105 10ZM385.803 6.75977L384.484 3.17969C384.441 3.0625 384.398 2.875 384.355 2.61719H384.332C384.293 2.85547 384.248 3.04297 384.197 3.17969L382.891 6.75977H385.803ZM393.309 9.72461C392.848 10.002 392.301 10.1406 391.668 10.1406C390.812 10.1406 390.121 9.86328 389.594 9.30859C389.07 8.75 388.809 8.02734 388.809 7.14062C388.809 6.15234 389.092 5.35938 389.658 4.76172C390.225 4.16016 390.98 3.85938 391.926 3.85938C392.453 3.85938 392.918 3.95703 393.32 4.15234V5.13672C392.875 4.82422 392.398 4.66797 391.891 4.66797C391.277 4.66797 390.773 4.88867 390.379 5.33008C389.988 5.76758 389.793 6.34375 389.793 7.05859C389.793 7.76172 389.977 8.31641 390.344 8.72266C390.715 9.12891 391.211 9.33203 391.832 9.33203C392.355 9.33203 392.848 9.1582 393.309 8.81055V9.72461ZM398.852 9.72461C398.391 10.002 397.844 10.1406 397.211 10.1406C396.355 10.1406 395.664 9.86328 395.137 9.30859C394.613 8.75 394.352 8.02734 394.352 7.14062C394.352 6.15234 394.635 5.35938 395.201 4.76172C395.768 4.16016 396.523 3.85938 397.469 3.85938C397.996 3.85938 398.461 3.95703 398.863 4.15234V5.13672C398.418 4.82422 397.941 4.66797 397.434 4.66797C396.82 4.66797 396.316 4.88867 395.922 5.33008C395.531 5.76758 395.336 6.34375 395.336 7.05859C395.336 7.76172 395.52 8.31641 395.887 8.72266C396.258 9.12891 396.754 9.33203 397.375 9.33203C397.898 9.33203 398.391 9.1582 398.852 8.81055V9.72461ZM402.812 10.1406C401.926 10.1406 401.217 9.86133 400.686 9.30273C400.158 8.74023 399.895 7.99609 399.895 7.07031C399.895 6.0625 400.17 5.27539 400.721 4.70898C401.271 4.14258 402.016 3.85938 402.953 3.85938C403.848 3.85938 404.545 4.13477 405.045 4.68555C405.549 5.23633 405.801 6 405.801 6.97656C405.801 7.93359 405.529 8.70117 404.986 9.2793C404.447 9.85352 403.723 10.1406 402.812 10.1406ZM402.883 4.66797C402.266 4.66797 401.777 4.87891 401.418 5.30078C401.059 5.71875 400.879 6.29688 400.879 7.03516C400.879 7.74609 401.061 8.30664 401.424 8.7168C401.787 9.12695 402.273 9.33203 402.883 9.33203C403.504 9.33203 403.98 9.13086 404.312 8.72852C404.648 8.32617 404.816 7.75391 404.816 7.01172C404.816 6.26172 404.648 5.68359 404.312 5.27734C403.98 4.87109 403.504 4.66797 402.883 4.66797ZM412.188 10H411.227V9.05078H411.203C410.805 9.77734 410.188 10.1406 409.352 10.1406C407.922 10.1406 407.207 9.28906 407.207 7.58594V4H408.162V7.43359C408.162 8.69922 408.646 9.33203 409.615 9.33203C410.084 9.33203 410.469 9.16016 410.77 8.81641C411.074 8.46875 411.227 8.01562 411.227 7.45703V4H412.188V10ZM419.113 10H418.152V6.57812C418.152 5.30469 417.688 4.66797 416.758 4.66797C416.277 4.66797 415.879 4.84961 415.562 5.21289C415.25 5.57227 415.094 6.02734 415.094 6.57812V10H414.133V4H415.094V4.99609H415.117C415.57 4.23828 416.227 3.85938 417.086 3.85938C417.742 3.85938 418.244 4.07227 418.592 4.49805C418.939 4.91992 419.113 5.53125 419.113 6.33203V10ZM423.713 9.94141C423.486 10.0664 423.188 10.1289 422.816 10.1289C421.766 10.1289 421.24 9.54297 421.24 8.37109V4.82031H420.209V4H421.24V2.53516L422.201 2.22461V4H423.713V4.82031H422.201V8.20117C422.201 8.60352 422.27 8.89062 422.406 9.0625C422.543 9.23438 422.77 9.32031 423.086 9.32031C423.328 9.32031 423.537 9.25391 423.713 9.12109V9.94141ZM424.633 9.7832V8.75195C425.156 9.13867 425.732 9.33203 426.361 9.33203C427.205 9.33203 427.627 9.05078 427.627 8.48828C427.627 8.32812 427.59 8.19336 427.516 8.08398C427.445 7.9707 427.348 7.87109 427.223 7.78516C427.102 7.69922 426.957 7.62305 426.789 7.55664C426.625 7.48633 426.447 7.41406 426.256 7.33984C425.99 7.23438 425.756 7.12891 425.553 7.02344C425.354 6.91406 425.186 6.79297 425.049 6.66016C424.916 6.52344 424.814 6.36914 424.744 6.19727C424.678 6.02539 424.645 5.82422 424.645 5.59375C424.645 5.3125 424.709 5.06445 424.838 4.84961C424.967 4.63086 425.139 4.44922 425.354 4.30469C425.568 4.15625 425.812 4.04492 426.086 3.9707C426.363 3.89648 426.648 3.85938 426.941 3.85938C427.461 3.85938 427.926 3.94922 428.336 4.12891V5.10156C427.895 4.8125 427.387 4.66797 426.812 4.66797C426.633 4.66797 426.471 4.68945 426.326 4.73242C426.182 4.77148 426.057 4.82812 425.951 4.90234C425.85 4.97656 425.77 5.06641 425.711 5.17188C425.656 5.27344 425.629 5.38672 425.629 5.51172C425.629 5.66797 425.656 5.79883 425.711 5.9043C425.77 6.00977 425.854 6.10352 425.963 6.18555C426.072 6.26758 426.205 6.3418 426.361 6.4082C426.518 6.47461 426.695 6.54688 426.895 6.625C427.16 6.72656 427.398 6.83203 427.609 6.94141C427.82 7.04688 428 7.16797 428.148 7.30469C428.297 7.4375 428.41 7.5918 428.488 7.76758C428.57 7.94336 428.611 8.15234 428.611 8.39453C428.611 8.69141 428.545 8.94922 428.412 9.16797C428.283 9.38672 428.109 9.56836 427.891 9.71289C427.672 9.85742 427.42 9.96484 427.135 10.0352C426.85 10.1055 426.551 10.1406 426.238 10.1406C425.621 10.1406 425.086 10.0215 424.633 9.7832Z" fill="#8E8E8E"/>
<path d="M453.418 10H452.434V6.16797H448.086V10H447.102V1.59766H448.086V5.2832H452.434V1.59766H453.418V10ZM459.787 10H458.826V9.0625H458.803C458.385 9.78125 457.77 10.1406 456.957 10.1406C456.359 10.1406 455.891 9.98242 455.551 9.66602C455.215 9.34961 455.047 8.92969 455.047 8.40625C455.047 7.28516 455.707 6.63281 457.027 6.44922L458.826 6.19727C458.826 5.17773 458.414 4.66797 457.59 4.66797C456.867 4.66797 456.215 4.91406 455.633 5.40625V4.42188C456.223 4.04688 456.902 3.85938 457.672 3.85938C459.082 3.85938 459.787 4.60547 459.787 6.09766V10ZM458.826 6.96484L457.379 7.16406C456.934 7.22656 456.598 7.33789 456.371 7.49805C456.145 7.6543 456.031 7.93359 456.031 8.33594C456.031 8.62891 456.135 8.86914 456.342 9.05664C456.553 9.24023 456.832 9.33203 457.18 9.33203C457.656 9.33203 458.049 9.16602 458.357 8.83398C458.67 8.49805 458.826 8.07422 458.826 7.5625V6.96484ZM461.234 9.7832V8.75195C461.758 9.13867 462.334 9.33203 462.963 9.33203C463.807 9.33203 464.229 9.05078 464.229 8.48828C464.229 8.32812 464.191 8.19336 464.117 8.08398C464.047 7.9707 463.949 7.87109 463.824 7.78516C463.703 7.69922 463.559 7.62305 463.391 7.55664C463.227 7.48633 463.049 7.41406 462.857 7.33984C462.592 7.23438 462.357 7.12891 462.154 7.02344C461.955 6.91406 461.787 6.79297 461.65 6.66016C461.518 6.52344 461.416 6.36914 461.346 6.19727C461.279 6.02539 461.246 5.82422 461.246 5.59375C461.246 5.3125 461.311 5.06445 461.439 4.84961C461.568 4.63086 461.74 4.44922 461.955 4.30469C462.17 4.15625 462.414 4.04492 462.688 3.9707C462.965 3.89648 463.25 3.85938 463.543 3.85938C464.062 3.85938 464.527 3.94922 464.938 4.12891V5.10156C464.496 4.8125 463.988 4.66797 463.414 4.66797C463.234 4.66797 463.072 4.68945 462.928 4.73242C462.783 4.77148 462.658 4.82812 462.553 4.90234C462.451 4.97656 462.371 5.06641 462.312 5.17188C462.258 5.27344 462.23 5.38672 462.23 5.51172C462.23 5.66797 462.258 5.79883 462.312 5.9043C462.371 6.00977 462.455 6.10352 462.564 6.18555C462.674 6.26758 462.807 6.3418 462.963 6.4082C463.119 6.47461 463.297 6.54688 463.496 6.625C463.762 6.72656 464 6.83203 464.211 6.94141C464.422 7.04688 464.602 7.16797 464.75 7.30469C464.898 7.4375 465.012 7.5918 465.09 7.76758C465.172 7.94336 465.213 8.15234 465.213 8.39453C465.213 8.69141 465.146 8.94922 465.014 9.16797C464.885 9.38672 464.711 9.56836 464.492 9.71289C464.273 9.85742 464.021 9.96484 463.736 10.0352C463.451 10.1055 463.152 10.1406 462.84 10.1406C462.223 10.1406 461.688 10.0215 461.234 9.7832ZM471.676 10H470.715V6.54297C470.715 5.29297 470.25 4.66797 469.32 4.66797C468.852 4.66797 468.457 4.84961 468.137 5.21289C467.816 5.57227 467.656 6.03516 467.656 6.60156V10H466.695V1.11719H467.656V4.99609H467.68C468.141 4.23828 468.797 3.85938 469.648 3.85938C471 3.85938 471.676 4.67383 471.676 6.30273V10ZM476.275 9.94141C476.049 10.0664 475.75 10.1289 475.379 10.1289C474.328 10.1289 473.803 9.54297 473.803 8.37109V4.82031H472.771V4H473.803V2.53516L474.764 2.22461V4H476.275V4.82031H474.764V8.20117C474.764 8.60352 474.832 8.89062 474.969 9.0625C475.105 9.23438 475.332 9.32031 475.648 9.32031C475.891 9.32031 476.1 9.25391 476.275 9.12109V9.94141ZM481.854 10H480.893V9.0625H480.869C480.451 9.78125 479.836 10.1406 479.023 10.1406C478.426 10.1406 477.957 9.98242 477.617 9.66602C477.281 9.34961 477.113 8.92969 477.113 8.40625C477.113 7.28516 477.773 6.63281 479.094 6.44922L480.893 6.19727C480.893 5.17773 480.48 4.66797 479.656 4.66797C478.934 4.66797 478.281 4.91406 477.699 5.40625V4.42188C478.289 4.04688 478.969 3.85938 479.738 3.85938C481.148 3.85938 481.854 4.60547 481.854 6.09766V10ZM480.893 6.96484L479.445 7.16406C479 7.22656 478.664 7.33789 478.438 7.49805C478.211 7.6543 478.098 7.93359 478.098 8.33594C478.098 8.62891 478.201 8.86914 478.408 9.05664C478.619 9.24023 478.898 9.33203 479.246 9.33203C479.723 9.33203 480.115 9.16602 480.424 8.83398C480.736 8.49805 480.893 8.07422 480.893 7.5625V6.96484ZM488.785 9.51953C488.785 11.7227 487.73 12.8242 485.621 12.8242C484.879 12.8242 484.23 12.6836 483.676 12.4023V11.4414C484.352 11.8164 484.996 12.0039 485.609 12.0039C487.086 12.0039 487.824 11.2188 487.824 9.64844V8.99219H487.801C487.344 9.75781 486.656 10.1406 485.738 10.1406C484.992 10.1406 484.391 9.875 483.934 9.34375C483.48 8.80859 483.254 8.0918 483.254 7.19336C483.254 6.17383 483.498 5.36328 483.986 4.76172C484.479 4.16016 485.15 3.85938 486.002 3.85938C486.811 3.85938 487.41 4.18359 487.801 4.83203H487.824V4H488.785V9.51953ZM487.824 7.28711V6.40234C487.824 5.92578 487.662 5.51758 487.338 5.17773C487.018 4.83789 486.617 4.66797 486.137 4.66797C485.543 4.66797 485.078 4.88477 484.742 5.31836C484.406 5.74805 484.238 6.35156 484.238 7.12891C484.238 7.79688 484.398 8.33203 484.719 8.73438C485.043 9.13281 485.471 9.33203 486.002 9.33203C486.541 9.33203 486.979 9.14062 487.314 8.75781C487.654 8.375 487.824 7.88477 487.824 7.28711ZM490.367 9.7832V8.75195C490.891 9.13867 491.467 9.33203 492.096 9.33203C492.939 9.33203 493.361 9.05078 493.361 8.48828C493.361 8.32812 493.324 8.19336 493.25 8.08398C493.18 7.9707 493.082 7.87109 492.957 7.78516C492.836 7.69922 492.691 7.62305 492.523 7.55664C492.359 7.48633 492.182 7.41406 491.99 7.33984C491.725 7.23438 491.49 7.12891 491.287 7.02344C491.088 6.91406 490.92 6.79297 490.783 6.66016C490.65 6.52344 490.549 6.36914 490.479 6.19727C490.412 6.02539 490.379 5.82422 490.379 5.59375C490.379 5.3125 490.443 5.06445 490.572 4.84961C490.701 4.63086 490.873 4.44922 491.088 4.30469C491.303 4.15625 491.547 4.04492 491.82 3.9707C492.098 3.89648 492.383 3.85938 492.676 3.85938C493.195 3.85938 493.66 3.94922 494.07 4.12891V5.10156C493.629 4.8125 493.121 4.66797 492.547 4.66797C492.367 4.66797 492.205 4.68945 492.061 4.73242C491.916 4.77148 491.791 4.82812 491.686 4.90234C491.584 4.97656 491.504 5.06641 491.445 5.17188C491.391 5.27344 491.363 5.38672 491.363 5.51172C491.363 5.66797 491.391 5.79883 491.445 5.9043C491.504 6.00977 491.588 6.10352 491.697 6.18555C491.807 6.26758 491.939 6.3418 492.096 6.4082C492.252 6.47461 492.43 6.54688 492.629 6.625C492.895 6.72656 493.133 6.83203 493.344 6.94141C493.555 7.04688 493.734 7.16797 493.883 7.30469C494.031 7.4375 494.145 7.5918 494.223 7.76758C494.305 7.94336 494.346 8.15234 494.346 8.39453C494.346 8.69141 494.279 8.94922 494.146 9.16797C494.018 9.38672 493.844 9.56836 493.625 9.71289C493.406 9.85742 493.154 9.96484 492.869 10.0352C492.584 10.1055 492.285 10.1406 491.973 10.1406C491.355 10.1406 490.82 10.0215 490.367 9.7832Z" fill="#8E8E8E"/>
<path d="M516.461 10H512.102V1.59766H513.086V9.10938H516.461V10ZM520.129 10.1406C519.242 10.1406 518.533 9.86133 518.002 9.30273C517.475 8.74023 517.211 7.99609 517.211 7.07031C517.211 6.0625 517.486 5.27539 518.037 4.70898C518.588 4.14258 519.332 3.85938 520.27 3.85938C521.164 3.85938 521.861 4.13477 522.361 4.68555C522.865 5.23633 523.117 6 523.117 6.97656C523.117 7.93359 522.846 8.70117 522.303 9.2793C521.764 9.85352 521.039 10.1406 520.129 10.1406ZM520.199 4.66797C519.582 4.66797 519.094 4.87891 518.734 5.30078C518.375 5.71875 518.195 6.29688 518.195 7.03516C518.195 7.74609 518.377 8.30664 518.74 8.7168C519.104 9.12695 519.59 9.33203 520.199 9.33203C520.82 9.33203 521.297 9.13086 521.629 8.72852C521.965 8.32617 522.133 7.75391 522.133 7.01172C522.133 6.26172 521.965 5.68359 521.629 5.27734C521.297 4.87109 520.82 4.66797 520.199 4.66797ZM528.742 9.72461C528.281 10.002 527.734 10.1406 527.102 10.1406C526.246 10.1406 525.555 9.86328 525.027 9.30859C524.504 8.75 524.242 8.02734 524.242 7.14062C524.242 6.15234 524.525 5.35938 525.092 4.76172C525.658 4.16016 526.414 3.85938 527.359 3.85938C527.887 3.85938 528.352 3.95703 528.754 4.15234V5.13672C528.309 4.82422 527.832 4.66797 527.324 4.66797C526.711 4.66797 526.207 4.88867 525.812 5.33008C525.422 5.76758 525.227 6.34375 525.227 7.05859C525.227 7.76172 525.41 8.31641 525.777 8.72266C526.148 9.12891 526.645 9.33203 527.266 9.33203C527.789 9.33203 528.281 9.1582 528.742 8.81055V9.72461ZM534.49 10H533.529V9.0625H533.506C533.088 9.78125 532.473 10.1406 531.66 10.1406C531.062 10.1406 530.594 9.98242 530.254 9.66602C529.918 9.34961 529.75 8.92969 529.75 8.40625C529.75 7.28516 530.41 6.63281 531.73 6.44922L533.529 6.19727C533.529 5.17773 533.117 4.66797 532.293 4.66797C531.57 4.66797 530.918 4.91406 530.336 5.40625V4.42188C530.926 4.04688 531.605 3.85938 532.375 3.85938C533.785 3.85938 534.49 4.60547 534.49 6.09766V10ZM533.529 6.96484L532.082 7.16406C531.637 7.22656 531.301 7.33789 531.074 7.49805C530.848 7.6543 530.734 7.93359 530.734 8.33594C530.734 8.62891 530.838 8.86914 531.045 9.05664C531.256 9.24023 531.535 9.33203 531.883 9.33203C532.359 9.33203 532.752 9.16602 533.061 8.83398C533.373 8.49805 533.529 8.07422 533.529 7.5625V6.96484ZM539.084 9.94141C538.857 10.0664 538.559 10.1289 538.188 10.1289C537.137 10.1289 536.611 9.54297 536.611 8.37109V4.82031H535.58V4H536.611V2.53516L537.572 2.22461V4H539.084V4.82031H537.572V8.20117C537.572 8.60352 537.641 8.89062 537.777 9.0625C537.914 9.23438 538.141 9.32031 538.457 9.32031C538.699 9.32031 538.908 9.25391 539.084 9.12109V9.94141ZM540.859 2.47656C540.688 2.47656 540.541 2.41797 540.42 2.30078C540.299 2.18359 540.238 2.03516 540.238 1.85547C540.238 1.67578 540.299 1.52734 540.42 1.41016C540.541 1.28906 540.688 1.22852 540.859 1.22852C541.035 1.22852 541.184 1.28906 541.305 1.41016C541.43 1.52734 541.492 1.67578 541.492 1.85547C541.492 2.02734 541.43 2.17383 541.305 2.29492C541.184 2.41602 541.035 2.47656 540.859 2.47656ZM541.328 10H540.367V4H541.328V10ZM545.781 10.1406C544.895 10.1406 544.186 9.86133 543.654 9.30273C543.127 8.74023 542.863 7.99609 542.863 7.07031C542.863 6.0625 543.139 5.27539 543.689 4.70898C544.24 4.14258 544.984 3.85938 545.922 3.85938C546.816 3.85938 547.514 4.13477 548.014 4.68555C548.518 5.23633 548.77 6 548.77 6.97656C548.77 7.93359 548.498 8.70117 547.955 9.2793C547.416 9.85352 546.691 10.1406 545.781 10.1406ZM545.852 4.66797C545.234 4.66797 544.746 4.87891 544.387 5.30078C544.027 5.71875 543.848 6.29688 543.848 7.03516C543.848 7.74609 544.029 8.30664 544.393 8.7168C544.756 9.12695 545.242 9.33203 545.852 9.33203C546.473 9.33203 546.949 9.13086 547.281 8.72852C547.617 8.32617 547.785 7.75391 547.785 7.01172C547.785 6.26172 547.617 5.68359 547.281 5.27734C546.949 4.87109 546.473 4.66797 545.852 4.66797ZM555.285 10H554.324V6.57812C554.324 5.30469 553.859 4.66797 552.93 4.66797C552.449 4.66797 552.051 4.84961 551.734 5.21289C551.422 5.57227 551.266 6.02734 551.266 6.57812V10H550.305V4H551.266V4.99609H551.289C551.742 4.23828 552.398 3.85938 553.258 3.85938C553.914 3.85938 554.416 4.07227 554.764 4.49805C555.111 4.91992 555.285 5.53125 555.285 6.33203V10ZM556.738 9.7832V8.75195C557.262 9.13867 557.838 9.33203 558.467 9.33203C559.311 9.33203 559.732 9.05078 559.732 8.48828C559.732 8.32812 559.695 8.19336 559.621 8.08398C559.551 7.9707 559.453 7.87109 559.328 7.78516C559.207 7.69922 559.062 7.62305 558.895 7.55664C558.73 7.48633 558.553 7.41406 558.361 7.33984C558.096 7.23438 557.861 7.12891 557.658 7.02344C557.459 6.91406 557.291 6.79297 557.154 6.66016C557.021 6.52344 556.92 6.36914 556.85 6.19727C556.783 6.02539 556.75 5.82422 556.75 5.59375C556.75 5.3125 556.814 5.06445 556.943 4.84961C557.072 4.63086 557.244 4.44922 557.459 4.30469C557.674 4.15625 557.918 4.04492 558.191 3.9707C558.469 3.89648 558.754 3.85938 559.047 3.85938C559.566 3.85938 560.031 3.94922 560.441 4.12891V5.10156C560 4.8125 559.492 4.66797 558.918 4.66797C558.738 4.66797 558.576 4.68945 558.432 4.73242C558.287 4.77148 558.162 4.82812 558.057 4.90234C557.955 4.97656 557.875 5.06641 557.816 5.17188C557.762 5.27344 557.734 5.38672 557.734 5.51172C557.734 5.66797 557.762 5.79883 557.816 5.9043C557.875 6.00977 557.959 6.10352 558.068 6.18555C558.178 6.26758 558.311 6.3418 558.467 6.4082C558.623 6.47461 558.801 6.54688 559 6.625C559.266 6.72656 559.504 6.83203 559.715 6.94141C559.926 7.04688 560.105 7.16797 560.254 7.30469C560.402 7.4375 560.516 7.5918 560.594 7.76758C560.676 7.94336 560.717 8.15234 560.717 8.39453C560.717 8.69141 560.65 8.94922 560.518 9.16797C560.389 9.38672 560.215 9.56836 559.996 9.71289C559.777 9.85742 559.525 9.96484 559.24 10.0352C558.955 10.1055 558.656 10.1406 558.344 10.1406C557.727 10.1406 557.191 10.0215 556.738 9.7832Z" fill="#8E8E8E"/>
<path d="M580.086 10H579.102V1.59766H580.086V10ZM587.152 10H586.191V6.57812C586.191 5.30469 585.727 4.66797 584.797 4.66797C584.316 4.66797 583.918 4.84961 583.602 5.21289C583.289 5.57227 583.133 6.02734 583.133 6.57812V10H582.172V4H583.133V4.99609H583.156C583.609 4.23828 584.266 3.85938 585.125 3.85938C585.781 3.85938 586.283 4.07227 586.631 4.49805C586.979 4.91992 587.152 5.53125 587.152 6.33203V10ZM588.605 9.7832V8.75195C589.129 9.13867 589.705 9.33203 590.334 9.33203C591.178 9.33203 591.6 9.05078 591.6 8.48828C591.6 8.32812 591.562 8.19336 591.488 8.08398C591.418 7.9707 591.32 7.87109 591.195 7.78516C591.074 7.69922 590.93 7.62305 590.762 7.55664C590.598 7.48633 590.42 7.41406 590.229 7.33984C589.963 7.23438 589.729 7.12891 589.525 7.02344C589.326 6.91406 589.158 6.79297 589.021 6.66016C588.889 6.52344 588.787 6.36914 588.717 6.19727C588.65 6.02539 588.617 5.82422 588.617 5.59375C588.617 5.3125 588.682 5.06445 588.811 4.84961C588.939 4.63086 589.111 4.44922 589.326 4.30469C589.541 4.15625 589.785 4.04492 590.059 3.9707C590.336 3.89648 590.621 3.85938 590.914 3.85938C591.434 3.85938 591.898 3.94922 592.309 4.12891V5.10156C591.867 4.8125 591.359 4.66797 590.785 4.66797C590.605 4.66797 590.443 4.68945 590.299 4.73242C590.154 4.77148 590.029 4.82812 589.924 4.90234C589.822 4.97656 589.742 5.06641 589.684 5.17188C589.629 5.27344 589.602 5.38672 589.602 5.51172C589.602 5.66797 589.629 5.79883 589.684 5.9043C589.742 6.00977 589.826 6.10352 589.936 6.18555C590.045 6.26758 590.178 6.3418 590.334 6.4082C590.49 6.47461 590.668 6.54688 590.867 6.625C591.133 6.72656 591.371 6.83203 591.582 6.94141C591.793 7.04688 591.973 7.16797 592.121 7.30469C592.27 7.4375 592.383 7.5918 592.461 7.76758C592.543 7.94336 592.584 8.15234 592.584 8.39453C592.584 8.69141 592.518 8.94922 592.385 9.16797C592.256 9.38672 592.082 9.56836 591.863 9.71289C591.645 9.85742 591.393 9.96484 591.107 10.0352C590.822 10.1055 590.523 10.1406 590.211 10.1406C589.594 10.1406 589.059 10.0215 588.605 9.7832ZM596.85 9.94141C596.623 10.0664 596.324 10.1289 595.953 10.1289C594.902 10.1289 594.377 9.54297 594.377 8.37109V4.82031H593.346V4H594.377V2.53516L595.338 2.22461V4H596.85V4.82031H595.338V8.20117C595.338 8.60352 595.406 8.89062 595.543 9.0625C595.68 9.23438 595.906 9.32031 596.223 9.32031C596.465 9.32031 596.674 9.25391 596.85 9.12109V9.94141ZM602.428 10H601.467V9.0625H601.443C601.025 9.78125 600.41 10.1406 599.598 10.1406C599 10.1406 598.531 9.98242 598.191 9.66602C597.855 9.34961 597.688 8.92969 597.688 8.40625C597.688 7.28516 598.348 6.63281 599.668 6.44922L601.467 6.19727C601.467 5.17773 601.055 4.66797 600.23 4.66797C599.508 4.66797 598.855 4.91406 598.273 5.40625V4.42188C598.863 4.04688 599.543 3.85938 600.312 3.85938C601.723 3.85938 602.428 4.60547 602.428 6.09766V10ZM601.467 6.96484L600.02 7.16406C599.574 7.22656 599.238 7.33789 599.012 7.49805C598.785 7.6543 598.672 7.93359 598.672 8.33594C598.672 8.62891 598.775 8.86914 598.982 9.05664C599.193 9.24023 599.473 9.33203 599.82 9.33203C600.297 9.33203 600.689 9.16602 600.998 8.83398C601.311 8.49805 601.467 8.07422 601.467 7.5625V6.96484ZM609.359 9.51953C609.359 11.7227 608.305 12.8242 606.195 12.8242C605.453 12.8242 604.805 12.6836 604.25 12.4023V11.4414C604.926 11.8164 605.57 12.0039 606.184 12.0039C607.66 12.0039 608.398 11.2188 608.398 9.64844V8.99219H608.375C607.918 9.75781 607.23 10.1406 606.312 10.1406C605.566 10.1406 604.965 9.875 604.508 9.34375C604.055 8.80859 603.828 8.0918 603.828 7.19336C603.828 6.17383 604.072 5.36328 604.561 4.76172C605.053 4.16016 605.725 3.85938 606.576 3.85938C607.385 3.85938 607.984 4.18359 608.375 4.83203H608.398V4H609.359V9.51953ZM608.398 7.28711V6.40234C608.398 5.92578 608.236 5.51758 607.912 5.17773C607.592 4.83789 607.191 4.66797 606.711 4.66797C606.117 4.66797 605.652 4.88477 605.316 5.31836C604.98 5.74805 604.812 6.35156 604.812 7.12891C604.812 7.79688 604.973 8.33203 605.293 8.73438C605.617 9.13281 606.045 9.33203 606.576 9.33203C607.115 9.33203 607.553 9.14062 607.889 8.75781C608.229 8.375 608.398 7.88477 608.398 7.28711ZM614.434 4.97266C614.266 4.84375 614.023 4.7793 613.707 4.7793C613.297 4.7793 612.953 4.97266 612.676 5.35938C612.402 5.74609 612.266 6.27344 612.266 6.94141V10H611.305V4H612.266V5.23633H612.289C612.426 4.81445 612.635 4.48633 612.916 4.25195C613.197 4.01367 613.512 3.89453 613.859 3.89453C614.109 3.89453 614.301 3.92188 614.434 3.97656V4.97266ZM619.771 10H618.811V9.0625H618.787C618.369 9.78125 617.754 10.1406 616.941 10.1406C616.344 10.1406 615.875 9.98242 615.535 9.66602C615.199 9.34961 615.031 8.92969 615.031 8.40625C615.031 7.28516 615.691 6.63281 617.012 6.44922L618.811 6.19727C618.811 5.17773 618.398 4.66797 617.574 4.66797C616.852 4.66797 616.199 4.91406 615.617 5.40625V4.42188C616.207 4.04688 616.887 3.85938 617.656 3.85938C619.066 3.85938 619.771 4.60547 619.771 6.09766V10ZM618.811 6.96484L617.363 7.16406C616.918 7.22656 616.582 7.33789 616.355 7.49805C616.129 7.6543 616.016 7.93359 616.016 8.33594C616.016 8.62891 616.119 8.86914 616.326 9.05664C616.537 9.24023 616.816 9.33203 617.164 9.33203C617.641 9.33203 618.033 9.16602 618.342 8.83398C618.654 8.49805 618.811 8.07422 618.811 7.5625V6.96484ZM630.102 10H629.141V6.55469C629.141 5.89062 629.037 5.41016 628.83 5.11328C628.627 4.81641 628.283 4.66797 627.799 4.66797C627.389 4.66797 627.039 4.85547 626.75 5.23047C626.465 5.60547 626.322 6.05469 626.322 6.57812V10H625.361V6.4375C625.361 5.25781 624.906 4.66797 623.996 4.66797C623.574 4.66797 623.227 4.8457 622.953 5.20117C622.68 5.55273 622.543 6.01172 622.543 6.57812V10H621.582V4H622.543V4.94922H622.566C622.992 4.22266 623.613 3.85938 624.43 3.85938C624.84 3.85938 625.197 3.97461 625.502 4.20508C625.807 4.43164 626.016 4.73047 626.129 5.10156C626.574 4.27344 627.238 3.85938 628.121 3.85938C629.441 3.85938 630.102 4.67383 630.102 6.30273V10ZM639.699 10H635.34V1.59766H636.324V9.10938H639.699V10ZM641.352 2.47656C641.18 2.47656 641.033 2.41797 640.912 2.30078C640.791 2.18359 640.73 2.03516 640.73 1.85547C640.73 1.67578 640.791 1.52734 640.912 1.41016C641.033 1.28906 641.18 1.22852 641.352 1.22852C641.527 1.22852 641.676 1.28906 641.797 1.41016C641.922 1.52734 641.984 1.67578 641.984 1.85547C641.984 2.02734 641.922 2.17383 641.797 2.29492C641.676 2.41602 641.527 2.47656 641.352 2.47656ZM641.82 10H640.859V4H641.82V10ZM646.549 9.94141C646.322 10.0664 646.023 10.1289 645.652 10.1289C644.602 10.1289 644.076 9.54297 644.076 8.37109V4.82031H643.045V4H644.076V2.53516L645.037 2.22461V4H646.549V4.82031H645.037V8.20117C645.037 8.60352 645.105 8.89062 645.242 9.0625C645.379 9.23438 645.605 9.32031 645.922 9.32031C646.164 9.32031 646.373 9.25391 646.549 9.12109V9.94141ZM652.654 7.24023H648.418C648.434 7.9082 648.613 8.42383 648.957 8.78711C649.301 9.15039 649.773 9.33203 650.375 9.33203C651.051 9.33203 651.672 9.10938 652.238 8.66406V9.56641C651.711 9.94922 651.014 10.1406 650.146 10.1406C649.299 10.1406 648.633 9.86914 648.148 9.32617C647.664 8.7793 647.422 8.01172 647.422 7.02344C647.422 6.08984 647.686 5.33008 648.213 4.74414C648.744 4.1543 649.402 3.85938 650.188 3.85938C650.973 3.85938 651.58 4.11328 652.01 4.62109C652.439 5.12891 652.654 5.83398 652.654 6.73633V7.24023ZM651.67 6.42578C651.666 5.87109 651.531 5.43945 651.266 5.13086C651.004 4.82227 650.639 4.66797 650.17 4.66797C649.717 4.66797 649.332 4.83008 649.016 5.1543C648.699 5.47852 648.504 5.90234 648.43 6.42578H651.67Z" fill="#8E8E8E"/>
<path d="M13.5547 39H9.10156V30.5977H13.3672V31.4883H10.0859V34.2832H13.1211V35.168H10.0859V38.1094H13.5547V39ZM20.0234 39H19.0625V35.5781C19.0625 34.3047 18.5977 33.668 17.668 33.668C17.1875 33.668 16.7891 33.8496 16.4727 34.2129C16.1602 34.5723 16.0039 35.0273 16.0039 35.5781V39H15.043V33H16.0039V33.9961H16.0273C16.4805 33.2383 17.1367 32.8594 17.9961 32.8594C18.6523 32.8594 19.1543 33.0723 19.502 33.498C19.8496 33.9199 20.0234 34.5312 20.0234 35.332V39ZM26.9609 38.5195C26.9609 40.7227 25.9062 41.8242 23.7969 41.8242C23.0547 41.8242 22.4062 41.6836 21.8516 41.4023V40.4414C22.5273 40.8164 23.1719 41.0039 23.7852 41.0039C25.2617 41.0039 26 40.2188 26 38.6484V37.9922H25.9766C25.5195 38.7578 24.832 39.1406 23.9141 39.1406C23.168 39.1406 22.5664 38.875 22.1094 38.3438C21.6562 37.8086 21.4297 37.0918 21.4297 36.1934C21.4297 35.1738 21.6738 34.3633 22.1621 33.7617C22.6543 33.1602 23.3262 32.8594 24.1777 32.8594C24.9863 32.8594 25.5859 33.1836 25.9766 33.832H26V33H26.9609V38.5195ZM26 36.2871V35.4023C26 34.9258 25.8379 34.5176 25.5137 34.1777C25.1934 33.8379 24.793 33.668 24.3125 33.668C23.7188 33.668 23.2539 33.8848 22.918 34.3184C22.582 34.748 22.4141 35.3516 22.4141 36.1289C22.4141 36.7969 22.5742 37.332 22.8945 37.7344C23.2188 38.1328 23.6465 38.332 24.1777 38.332C24.7168 38.332 25.1543 38.1406 25.4902 37.7578C25.8301 37.375 26 36.8848 26 36.2871ZM29.8672 39H28.9062V30.1172H29.8672V39ZM32.3047 31.4766C32.1328 31.4766 31.9863 31.418 31.8652 31.3008C31.7441 31.1836 31.6836 31.0352 31.6836 30.8555C31.6836 30.6758 31.7441 30.5273 31.8652 30.4102C31.9863 30.2891 32.1328 30.2285 32.3047 30.2285C32.4805 30.2285 32.6289 30.2891 32.75 30.4102C32.875 30.5273 32.9375 30.6758 32.9375 30.8555C32.9375 31.0273 32.875 31.1738 32.75 31.2949C32.6289 31.416 32.4805 31.4766 32.3047 31.4766ZM32.7734 39H31.8125V33H32.7734V39ZM34.3555 38.7832V37.752C34.8789 38.1387 35.4551 38.332 36.084 38.332C36.9277 38.332 37.3496 38.0508 37.3496 37.4883C37.3496 37.3281 37.3125 37.1934 37.2383 37.084C37.168 36.9707 37.0703 36.8711 36.9453 36.7852C36.8242 36.6992 36.6797 36.623 36.5117 36.5566C36.3477 36.4863 36.1699 36.4141 35.9785 36.3398C35.7129 36.2344 35.4785 36.1289 35.2754 36.0234C35.0762 35.9141 34.9082 35.793 34.7715 35.6602C34.6387 35.5234 34.5371 35.3691 34.4668 35.1973C34.4004 35.0254 34.3672 34.8242 34.3672 34.5938C34.3672 34.3125 34.4316 34.0645 34.5605 33.8496C34.6895 33.6309 34.8613 33.4492 35.0762 33.3047C35.291 33.1562 35.5352 33.0449 35.8086 32.9707C36.0859 32.8965 36.3711 32.8594 36.6641 32.8594C37.1836 32.8594 37.6484 32.9492 38.0586 33.1289V34.1016C37.6172 33.8125 37.1094 33.668 36.5352 33.668C36.3555 33.668 36.1934 33.6895 36.0488 33.7324C35.9043 33.7715 35.7793 33.8281 35.6738 33.9023C35.5723 33.9766 35.4922 34.0664 35.4336 34.1719C35.3789 34.2734 35.3516 34.3867 35.3516 34.5117C35.3516 34.668 35.3789 34.7988 35.4336 34.9043C35.4922 35.0098 35.5762 35.1035 35.6855 35.1855C35.7949 35.2676 35.9277 35.3418 36.084 35.4082C36.2402 35.4746 36.418 35.5469 36.6172 35.625C36.8828 35.7266 37.1211 35.832 37.332 35.9414C37.543 36.0469 37.7227 36.168 37.8711 36.3047C38.0195 36.4375 38.1328 36.5918 38.2109 36.7676C38.293 36.9434 38.334 37.1523 38.334 37.3945C38.334 37.6914 38.2676 37.9492 38.1348 38.168C38.0059 38.3867 37.832 38.5684 37.6133 38.7129C37.3945 38.8574 37.1426 38.9648 36.8574 39.0352C36.5723 39.1055 36.2734 39.1406 35.9609 39.1406C35.3438 39.1406 34.8086 39.0215 34.3555 38.7832ZM44.7969 39H43.8359V35.543C43.8359 34.293 43.3711 33.668 42.4414 33.668C41.9727 33.668 41.5781 33.8496 41.2578 34.2129C40.9375 34.5723 40.7773 35.0352 40.7773 35.6016V39H39.8164V30.1172H40.7773V33.9961H40.8008C41.2617 33.2383 41.918 32.8594 42.7695 32.8594C44.1211 32.8594 44.7969 33.6738 44.7969 35.3027V39Z" fill="#8E8E8E"/>
<path d="M51.8333 32.3228C51.925 32.3228 52.0167 32.3457 52.0854 32.4145L55.5 35.852L58.9146 32.4145C59.0521 32.277 59.2583 32.277 59.3958 32.4145C59.5333 32.552 59.5333 32.7582 59.3958 32.8957L55.7292 36.5624C55.5917 36.6999 55.3854 36.6999 55.2479 36.5624L51.5813 32.8957C51.4438 32.7582 51.4438 32.552 51.5813 32.4145C51.65 32.3457 51.7417 32.3228 51.8333 32.3228Z" fill="#8E8E8E"/>
<path d="M90.3438 39.1934C89.1289 39.1934 88.0918 38.7656 87.2324 37.9102C86.377 37.0508 85.9492 36.0137 85.9492 34.7988C85.9492 33.584 86.377 32.5488 87.2324 31.6934C88.0918 30.834 89.1289 30.4043 90.3438 30.4043C91.5547 30.4043 92.5879 30.834 93.4434 31.6934C94.3027 32.5488 94.7324 33.584 94.7324 34.7988C94.7324 36.0137 94.3027 37.0508 93.4434 37.9102C92.5879 38.7656 91.5547 39.1934 90.3438 39.1934ZM90.3438 30.9199C89.2734 30.9199 88.3594 31.2988 87.6016 32.0566C86.8438 32.8145 86.4648 33.7285 86.4648 34.7988C86.4648 35.8691 86.8438 36.7832 87.6016 37.541C88.3594 38.2949 89.2734 38.6719 90.3438 38.6719C91.4141 38.6719 92.3262 38.2949 93.0801 37.541C93.8379 36.7832 94.2168 35.8691 94.2168 34.7988C94.2168 33.7285 93.8379 32.8145 93.0801 32.0566C92.3262 31.2988 91.4141 30.9199 90.3438 30.9199ZM91.9316 37.0723C91.5215 37.3418 91.0371 37.4766 90.4785 37.4766C89.7285 37.4766 89.0996 37.2324 88.5918 36.7441C88.084 36.2559 87.8301 35.6445 87.8301 34.9102C87.8301 34.0586 88.0898 33.3789 88.6094 32.8711C89.1289 32.3633 89.8047 32.1094 90.6367 32.1094C91.1094 32.1094 91.5332 32.2129 91.9082 32.4199V33.2988C91.5723 33.0176 91.125 32.877 90.5664 32.877C90.0156 32.877 89.5605 33.0527 89.2012 33.4043C88.8457 33.7559 88.668 34.2285 88.668 34.8223C88.668 35.4004 88.8496 35.8633 89.2129 36.2109C89.5801 36.5586 90.0449 36.7324 90.6074 36.7324C91.123 36.7324 91.5645 36.5801 91.9316 36.2754V37.0723ZM103.504 32.8008C103.504 32.543 103.463 32.3184 103.381 32.127C103.303 31.9355 103.193 31.7773 103.053 31.6523C102.916 31.5234 102.754 31.4277 102.566 31.3652C102.379 31.3027 102.176 31.2715 101.957 31.2715C101.77 31.2715 101.586 31.2969 101.406 31.3477C101.227 31.3984 101.051 31.4688 100.879 31.5586C100.711 31.6484 100.547 31.7559 100.387 31.8809C100.23 32.0059 100.084 32.1445 99.9473 32.2969V31.2656C100.217 31.0039 100.518 30.8047 100.85 30.668C101.186 30.5273 101.594 30.457 102.074 30.457C102.418 30.457 102.736 30.5078 103.029 30.6094C103.322 30.707 103.576 30.8516 103.791 31.043C104.006 31.2344 104.174 31.4707 104.295 31.752C104.42 32.0332 104.482 32.3555 104.482 32.7188C104.482 33.0508 104.443 33.3516 104.365 33.6211C104.291 33.8906 104.176 34.1445 104.02 34.3828C103.867 34.6211 103.674 34.8496 103.439 35.0684C103.205 35.2871 102.93 35.5098 102.613 35.7363C102.219 36.0176 101.893 36.2578 101.635 36.457C101.381 36.6562 101.178 36.8438 101.025 37.0195C100.877 37.1914 100.771 37.3652 100.709 37.541C100.65 37.7129 100.621 37.9121 100.621 38.1387H104.805V39H99.6191V38.584C99.6191 38.2246 99.6582 37.9082 99.7363 37.6348C99.8145 37.3613 99.9434 37.1016 100.123 36.8555C100.303 36.6094 100.537 36.3633 100.826 36.1172C101.119 35.8711 101.477 35.5938 101.898 35.2852C102.203 35.0664 102.457 34.8574 102.66 34.6582C102.867 34.459 103.033 34.2598 103.158 34.0605C103.283 33.8613 103.371 33.6602 103.422 33.457C103.477 33.25 103.504 33.0312 103.504 32.8008ZM111.426 34.7637C111.426 35.4668 111.361 36.0898 111.232 36.6328C111.107 37.1758 110.924 37.6348 110.682 38.0098C110.443 38.3809 110.148 38.6641 109.797 38.8594C109.449 39.0508 109.053 39.1465 108.607 39.1465C108.186 39.1465 107.809 39.0547 107.477 38.8711C107.148 38.6836 106.871 38.4121 106.645 38.0566C106.418 37.7012 106.246 37.2656 106.129 36.75C106.012 36.2305 105.953 35.6367 105.953 34.9688C105.953 34.2344 106.014 33.5859 106.135 33.0234C106.26 32.4609 106.441 31.9902 106.68 31.6113C106.918 31.2285 107.213 30.9414 107.564 30.75C107.92 30.5547 108.326 30.457 108.783 30.457C110.545 30.457 111.426 31.8926 111.426 34.7637ZM110.441 34.8574C110.441 32.4668 109.873 31.2715 108.736 31.2715C107.537 31.2715 106.938 32.4883 106.938 34.9219C106.938 37.1914 107.525 38.3262 108.701 38.3262C109.861 38.3262 110.441 37.1699 110.441 34.8574ZM116.441 32.8008C116.441 32.543 116.4 32.3184 116.318 32.127C116.24 31.9355 116.131 31.7773 115.99 31.6523C115.854 31.5234 115.691 31.4277 115.504 31.3652C115.316 31.3027 115.113 31.2715 114.895 31.2715C114.707 31.2715 114.523 31.2969 114.344 31.3477C114.164 31.3984 113.988 31.4688 113.816 31.5586C113.648 31.6484 113.484 31.7559 113.324 31.8809C113.168 32.0059 113.021 32.1445 112.885 32.2969V31.2656C113.154 31.0039 113.455 30.8047 113.787 30.668C114.123 30.5273 114.531 30.457 115.012 30.457C115.355 30.457 115.674 30.5078 115.967 30.6094C116.26 30.707 116.514 30.8516 116.729 31.043C116.943 31.2344 117.111 31.4707 117.232 31.752C117.357 32.0332 117.42 32.3555 117.42 32.7188C117.42 33.0508 117.381 33.3516 117.303 33.6211C117.229 33.8906 117.113 34.1445 116.957 34.3828C116.805 34.6211 116.611 34.8496 116.377 35.0684C116.143 35.2871 115.867 35.5098 115.551 35.7363C115.156 36.0176 114.83 36.2578 114.572 36.457C114.318 36.6562 114.115 36.8438 113.963 37.0195C113.814 37.1914 113.709 37.3652 113.646 37.541C113.588 37.7129 113.559 37.9121 113.559 38.1387H117.742V39H112.557V38.584C112.557 38.2246 112.596 37.9082 112.674 37.6348C112.752 37.3613 112.881 37.1016 113.061 36.8555C113.24 36.6094 113.475 36.3633 113.764 36.1172C114.057 35.8711 114.414 35.5938 114.836 35.2852C115.141 35.0664 115.395 34.8574 115.598 34.6582C115.805 34.459 115.971 34.2598 116.096 34.0605C116.221 33.8613 116.309 33.6602 116.359 33.457C116.414 33.25 116.441 33.0312 116.441 32.8008ZM122.629 39H121.668V31.7402C121.594 31.8145 121.484 31.9004 121.34 31.998C121.199 32.0918 121.039 32.1855 120.859 32.2793C120.684 32.373 120.496 32.4609 120.297 32.543C120.102 32.625 119.91 32.6895 119.723 32.7363V31.7637C119.934 31.7051 120.156 31.627 120.391 31.5293C120.629 31.4277 120.861 31.3164 121.088 31.1953C121.318 31.0703 121.535 30.9414 121.738 30.8086C121.941 30.6719 122.117 30.5391 122.266 30.4102H122.629V39ZM130.234 39H129.25V30.5977H130.234V39ZM137.301 39H136.34V35.5781C136.34 34.3047 135.875 33.668 134.945 33.668C134.465 33.668 134.066 33.8496 133.75 34.2129C133.438 34.5723 133.281 35.0273 133.281 35.5781V39H132.32V33H133.281V33.9961H133.305C133.758 33.2383 134.414 32.8594 135.273 32.8594C135.93 32.8594 136.432 33.0723 136.779 33.498C137.127 33.9199 137.301 34.5312 137.301 35.332V39ZM138.754 38.7832V37.752C139.277 38.1387 139.854 38.332 140.482 38.332C141.326 38.332 141.748 38.0508 141.748 37.4883C141.748 37.3281 141.711 37.1934 141.637 37.084C141.566 36.9707 141.469 36.8711 141.344 36.7852C141.223 36.6992 141.078 36.623 140.91 36.5566C140.746 36.4863 140.568 36.4141 140.377 36.3398C140.111 36.2344 139.877 36.1289 139.674 36.0234C139.475 35.9141 139.307 35.793 139.17 35.6602C139.037 35.5234 138.936 35.3691 138.865 35.1973C138.799 35.0254 138.766 34.8242 138.766 34.5938C138.766 34.3125 138.83 34.0645 138.959 33.8496C139.088 33.6309 139.26 33.4492 139.475 33.3047C139.689 33.1562 139.934 33.0449 140.207 32.9707C140.484 32.8965 140.77 32.8594 141.062 32.8594C141.582 32.8594 142.047 32.9492 142.457 33.1289V34.1016C142.016 33.8125 141.508 33.668 140.934 33.668C140.754 33.668 140.592 33.6895 140.447 33.7324C140.303 33.7715 140.178 33.8281 140.072 33.9023C139.971 33.9766 139.891 34.0664 139.832 34.1719C139.777 34.2734 139.75 34.3867 139.75 34.5117C139.75 34.668 139.777 34.7988 139.832 34.9043C139.891 35.0098 139.975 35.1035 140.084 35.1855C140.193 35.2676 140.326 35.3418 140.482 35.4082C140.639 35.4746 140.816 35.5469 141.016 35.625C141.281 35.7266 141.52 35.832 141.73 35.9414C141.941 36.0469 142.121 36.168 142.27 36.3047C142.418 36.4375 142.531 36.5918 142.609 36.7676C142.691 36.9434 142.732 37.1523 142.732 37.3945C142.732 37.6914 142.666 37.9492 142.533 38.168C142.404 38.3867 142.23 38.5684 142.012 38.7129C141.793 38.8574 141.541 38.9648 141.256 39.0352C140.971 39.1055 140.672 39.1406 140.359 39.1406C139.742 39.1406 139.207 39.0215 138.754 38.7832ZM146.998 38.9414C146.771 39.0664 146.473 39.1289 146.102 39.1289C145.051 39.1289 144.525 38.543 144.525 37.3711V33.8203H143.494V33H144.525V31.5352L145.486 31.2246V33H146.998V33.8203H145.486V37.2012C145.486 37.6035 145.555 37.8906 145.691 38.0625C145.828 38.2344 146.055 38.3203 146.371 38.3203C146.613 38.3203 146.822 38.2539 146.998 38.1211V38.9414ZM152.576 39H151.615V38.0625H151.592C151.174 38.7812 150.559 39.1406 149.746 39.1406C149.148 39.1406 148.68 38.9824 148.34 38.666C148.004 38.3496 147.836 37.9297 147.836 37.4062C147.836 36.2852 148.496 35.6328 149.816 35.4492L151.615 35.1973C151.615 34.1777 151.203 33.668 150.379 33.668C149.656 33.668 149.004 33.9141 148.422 34.4062V33.4219C149.012 33.0469 149.691 32.8594 150.461 32.8594C151.871 32.8594 152.576 33.6055 152.576 35.0977V39ZM151.615 35.9648L150.168 36.1641C149.723 36.2266 149.387 36.3379 149.16 36.498C148.934 36.6543 148.82 36.9336 148.82 37.3359C148.82 37.6289 148.924 37.8691 149.131 38.0566C149.342 38.2402 149.621 38.332 149.969 38.332C150.445 38.332 150.838 38.166 151.146 37.834C151.459 37.498 151.615 37.0742 151.615 36.5625V35.9648ZM159.508 38.5195C159.508 40.7227 158.453 41.8242 156.344 41.8242C155.602 41.8242 154.953 41.6836 154.398 41.4023V40.4414C155.074 40.8164 155.719 41.0039 156.332 41.0039C157.809 41.0039 158.547 40.2188 158.547 38.6484V37.9922H158.523C158.066 38.7578 157.379 39.1406 156.461 39.1406C155.715 39.1406 155.113 38.875 154.656 38.3438C154.203 37.8086 153.977 37.0918 153.977 36.1934C153.977 35.1738 154.221 34.3633 154.709 33.7617C155.201 33.1602 155.873 32.8594 156.725 32.8594C157.533 32.8594 158.133 33.1836 158.523 33.832H158.547V33H159.508V38.5195ZM158.547 36.2871V35.4023C158.547 34.9258 158.385 34.5176 158.061 34.1777C157.74 33.8379 157.34 33.668 156.859 33.668C156.266 33.668 155.801 33.8848 155.465 34.3184C155.129 34.748 154.961 35.3516 154.961 36.1289C154.961 36.7969 155.121 37.332 155.441 37.7344C155.766 38.1328 156.193 38.332 156.725 38.332C157.264 38.332 157.701 38.1406 158.037 37.7578C158.377 37.375 158.547 36.8848 158.547 36.2871ZM164.582 33.9727C164.414 33.8438 164.172 33.7793 163.855 33.7793C163.445 33.7793 163.102 33.9727 162.824 34.3594C162.551 34.7461 162.414 35.2734 162.414 35.9414V39H161.453V33H162.414V34.2363H162.438C162.574 33.8145 162.783 33.4863 163.064 33.252C163.346 33.0137 163.66 32.8945 164.008 32.8945C164.258 32.8945 164.449 32.9219 164.582 32.9766V33.9727ZM169.92 39H168.959V38.0625H168.936C168.518 38.7812 167.902 39.1406 167.09 39.1406C166.492 39.1406 166.023 38.9824 165.684 38.666C165.348 38.3496 165.18 37.9297 165.18 37.4062C165.18 36.2852 165.84 35.6328 167.16 35.4492L168.959 35.1973C168.959 34.1777 168.547 33.668 167.723 33.668C167 33.668 166.348 33.9141 165.766 34.4062V33.4219C166.355 33.0469 167.035 32.8594 167.805 32.8594C169.215 32.8594 169.92 33.6055 169.92 35.0977V39ZM168.959 35.9648L167.512 36.1641C167.066 36.2266 166.73 36.3379 166.504 36.498C166.277 36.6543 166.164 36.9336 166.164 37.3359C166.164 37.6289 166.268 37.8691 166.475 38.0566C166.686 38.2402 166.965 38.332 167.312 38.332C167.789 38.332 168.182 38.166 168.49 37.834C168.803 37.498 168.959 37.0742 168.959 36.5625V35.9648ZM180.25 39H179.289V35.5547C179.289 34.8906 179.186 34.4102 178.979 34.1133C178.775 33.8164 178.432 33.668 177.947 33.668C177.537 33.668 177.188 33.8555 176.898 34.2305C176.613 34.6055 176.471 35.0547 176.471 35.5781V39H175.51V35.4375C175.51 34.2578 175.055 33.668 174.145 33.668C173.723 33.668 173.375 33.8457 173.102 34.2012C172.828 34.5527 172.691 35.0117 172.691 35.5781V39H171.73V33H172.691V33.9492H172.715C173.141 33.2227 173.762 32.8594 174.578 32.8594C174.988 32.8594 175.346 32.9746 175.65 33.2051C175.955 33.4316 176.164 33.7305 176.277 34.1016C176.723 33.2734 177.387 32.8594 178.27 32.8594C179.59 32.8594 180.25 33.6738 180.25 35.3027V39ZM189.754 31.4883H186.473V34.3945H189.508V35.2793H186.473V39H185.488V30.5977H189.754V31.4883ZM194.348 33.9727C194.18 33.8438 193.938 33.7793 193.621 33.7793C193.211 33.7793 192.867 33.9727 192.59 34.3594C192.316 34.7461 192.18 35.2734 192.18 35.9414V39H191.219V33H192.18V34.2363H192.203C192.34 33.8145 192.549 33.4863 192.83 33.252C193.111 33.0137 193.426 32.8945 193.773 32.8945C194.023 32.8945 194.215 32.9219 194.348 32.9766V33.9727ZM197.898 39.1406C197.012 39.1406 196.303 38.8613 195.771 38.3027C195.244 37.7402 194.98 36.9961 194.98 36.0703C194.98 35.0625 195.256 34.2754 195.807 33.709C196.357 33.1426 197.102 32.8594 198.039 32.8594C198.934 32.8594 199.631 33.1348 200.131 33.6855C200.635 34.2363 200.887 35 200.887 35.9766C200.887 36.9336 200.615 37.7012 200.072 38.2793C199.533 38.8535 198.809 39.1406 197.898 39.1406ZM197.969 33.668C197.352 33.668 196.863 33.8789 196.504 34.3008C196.145 34.7188 195.965 35.2969 195.965 36.0352C195.965 36.7461 196.146 37.3066 196.51 37.7168C196.873 38.127 197.359 38.332 197.969 38.332C198.59 38.332 199.066 38.1309 199.398 37.7285C199.734 37.3262 199.902 36.7539 199.902 36.0117C199.902 35.2617 199.734 34.6836 199.398 34.2773C199.066 33.8711 198.59 33.668 197.969 33.668ZM210.941 39H209.98V35.5547C209.98 34.8906 209.877 34.4102 209.67 34.1133C209.467 33.8164 209.123 33.668 208.639 33.668C208.229 33.668 207.879 33.8555 207.59 34.2305C207.305 34.6055 207.162 35.0547 207.162 35.5781V39H206.201V35.4375C206.201 34.2578 205.746 33.668 204.836 33.668C204.414 33.668 204.066 33.8457 203.793 34.2012C203.52 34.5527 203.383 35.0117 203.383 35.5781V39H202.422V33H203.383V33.9492H203.406C203.832 33.2227 204.453 32.8594 205.27 32.8594C205.68 32.8594 206.037 32.9746 206.342 33.2051C206.646 33.4316 206.855 33.7305 206.969 34.1016C207.414 33.2734 208.078 32.8594 208.961 32.8594C210.281 32.8594 210.941 33.6738 210.941 35.3027V39ZM224.746 39H223.768V33.3633C223.768 32.918 223.795 32.373 223.85 31.7285H223.826C223.732 32.1074 223.648 32.3789 223.574 32.543L220.703 39H220.223L217.357 32.5898C217.275 32.4023 217.191 32.1152 217.105 31.7285H217.082C217.113 32.0645 217.129 32.6133 217.129 33.375V39H216.18V30.5977H217.48L220.059 36.457C220.258 36.9062 220.387 37.2422 220.445 37.4648H220.48C220.648 37.0039 220.783 36.6602 220.885 36.4336L223.516 30.5977H224.746V39ZM231.654 36.2402H227.418C227.434 36.9082 227.613 37.4238 227.957 37.7871C228.301 38.1504 228.773 38.332 229.375 38.332C230.051 38.332 230.672 38.1094 231.238 37.6641V38.5664C230.711 38.9492 230.014 39.1406 229.146 39.1406C228.299 39.1406 227.633 38.8691 227.148 38.3262C226.664 37.7793 226.422 37.0117 226.422 36.0234C226.422 35.0898 226.686 34.3301 227.213 33.7441C227.744 33.1543 228.402 32.8594 229.188 32.8594C229.973 32.8594 230.58 33.1133 231.01 33.6211C231.439 34.1289 231.654 34.834 231.654 35.7363V36.2402ZM230.67 35.4258C230.666 34.8711 230.531 34.4395 230.266 34.1309C230.004 33.8223 229.639 33.668 229.17 33.668C228.717 33.668 228.332 33.8301 228.016 34.1543C227.699 34.4785 227.504 34.9023 227.43 35.4258H230.67ZM235.896 38.9414C235.67 39.0664 235.371 39.1289 235 39.1289C233.949 39.1289 233.424 38.543 233.424 37.3711V33.8203H232.393V33H233.424V31.5352L234.385 31.2246V33H235.896V33.8203H234.385V37.2012C234.385 37.6035 234.453 37.8906 234.59 38.0625C234.727 38.2344 234.953 38.3203 235.27 38.3203C235.512 38.3203 235.721 38.2539 235.896 38.1211V38.9414ZM241.475 39H240.514V38.0625H240.49C240.072 38.7812 239.457 39.1406 238.645 39.1406C238.047 39.1406 237.578 38.9824 237.238 38.666C236.902 38.3496 236.734 37.9297 236.734 37.4062C236.734 36.2852 237.395 35.6328 238.715 35.4492L240.514 35.1973C240.514 34.1777 240.102 33.668 239.277 33.668C238.555 33.668 237.902 33.9141 237.32 34.4062V33.4219C237.91 33.0469 238.59 32.8594 239.359 32.8594C240.77 32.8594 241.475 33.6055 241.475 35.0977V39ZM240.514 35.9648L239.066 36.1641C238.621 36.2266 238.285 36.3379 238.059 36.498C237.832 36.6543 237.719 36.9336 237.719 37.3359C237.719 37.6289 237.822 37.8691 238.029 38.0566C238.24 38.2402 238.52 38.332 238.867 38.332C239.344 38.332 239.736 38.166 240.045 37.834C240.357 37.498 240.514 37.0742 240.514 36.5625V35.9648Z" fill="#8E8E8E"/>
</svg>
